<?xml version="1.0" encoding="UTF-8"?>
<svg width="78px" height="78px" viewBox="0 0 78 78" version="1.1" xmlns="http://www.w3.org/2000/svg" xmlns:xlink="http://www.w3.org/1999/xlink">
    <title>001-verify</title>
    <g id="Visual-Design:-Super-Admin" stroke="none" stroke-width="1" fill="none" fill-rule="evenodd">
        <g id="0.3" transform="translate(-992.000000, -488.000000)">
            <g id="Group-11" transform="translate(962.000000, 458.000000)">
                <g id="001-verify" transform="translate(30.000000, 30.000000)">
                    <circle id="Oval" fill="#F2AF36" cx="57" cy="57" r="19"></circle>
                    <path d="M56.875,78 C45.227,78 35.75,68.523 35.75,56.875 C35.75,45.227 45.227,35.75 56.875,35.75 C68.523,35.75 78,45.227 78,56.875 C78,68.523 68.523,78 56.875,78 Z M56.875,39 C47.01775,39 39,47.021 39,56.875 C39,66.729 47.01775,74.75 56.875,74.75 C66.73225,74.75 74.75,66.729 74.75,56.875 C74.75,47.021 66.73225,39 56.875,39 Z" id="Shape" fill="#000000" fill-rule="nonzero"></path>
                    <path d="M53.625,65 C53.196,65 52.78,64.82775 52.4745,64.5255 L45.9745,58.0255 C45.34075,57.39175 45.34075,56.3615 45.9745,55.72775 C46.60825,55.094 47.6385,55.094 48.27225,55.72775 L53.54375,60.99925 L63.77475,49.30575 C64.36625,48.6265 65.39325,48.5615 66.06925,49.153 C66.74525,49.7445 66.8135,50.76825 66.222,51.44425 L54.847,64.44425 C54.55125,64.78225 54.1255,64.98375 53.677,65 C53.66075,65 53.64125,65 53.625,65 L53.625,65 Z" id="Path" fill="#000000" fill-rule="nonzero"></path>
                    <path d="M30.875,68.25 L8.125,68.25 C3.6465,68.25 0,64.60675 0,60.125 L0,17.875 C0,13.39325 3.6465,9.75 8.125,9.75 L14.625,9.75 C15.522,9.75 16.25,10.478 16.25,11.375 C16.25,12.272 15.522,13 14.625,13 L8.125,13 C5.43725,13 3.25,15.18725 3.25,17.875 L3.25,60.125 C3.25,62.81275 5.43725,65 8.125,65 L30.875,65 C31.772,65 32.5,65.728 32.5,66.625 C32.5,67.522 31.772,68.25 30.875,68.25 Z" id="Path" fill="#000000" fill-rule="nonzero"></path>
                    <path d="M53.625,29.25 C52.728,29.25 52,28.522 52,27.625 L52,17.875 C52,15.18725 49.81275,13 47.125,13 L40.625,13 C39.728,13 39,12.272 39,11.375 C39,10.478 39.728,9.75 40.625,9.75 L47.125,9.75 C51.6035,9.75 55.25,13.39325 55.25,17.875 L55.25,27.625 C55.25,28.522 54.522,29.25 53.625,29.25 Z" id="Path" fill="#000000" fill-rule="nonzero"></path>
                    <path d="M37.375,19.5 L17.875,19.5 C15.18725,19.5 13,17.31275 13,14.625 L13,8.125 C13,7.228 13.728,6.5 14.625,6.5 L19.6625,6.5 C20.41975,2.795 23.699,0 27.625,0 C31.551,0 34.83025,2.795 35.5875,6.5 L40.625,6.5 C41.522,6.5 42.25,7.228 42.25,8.125 L42.25,14.625 C42.25,17.31275 40.06275,19.5 37.375,19.5 Z M16.25,9.75 L16.25,14.625 C16.25,15.51875 16.978,16.25 17.875,16.25 L37.375,16.25 C38.272,16.25 39,15.51875 39,14.625 L39,9.75 L34.125,9.75 C33.228,9.75 32.5,9.022 32.5,8.125 C32.5,5.43725 30.31275,3.25 27.625,3.25 C24.93725,3.25 22.75,5.43725 22.75,8.125 C22.75,9.022 22.022,9.75 21.125,9.75 L16.25,9.75 Z" id="Shape" fill="#000000" fill-rule="nonzero"></path>
                    <path d="M43.875,29.25 L11.375,29.25 C10.478,29.25 9.75,28.522 9.75,27.625 C9.75,26.728 10.478,26 11.375,26 L43.875,26 C44.772,26 45.5,26.728 45.5,27.625 C45.5,28.522 44.772,29.25 43.875,29.25 Z" id="Path" fill="#000000" fill-rule="nonzero"></path>
                    <path d="M34.125,39 L11.375,39 C10.478,39 9.75,38.272 9.75,37.375 C9.75,36.478 10.478,35.75 11.375,35.75 L34.125,35.75 C35.022,35.75 35.75,36.478 35.75,37.375 C35.75,38.272 35.022,39 34.125,39 Z" id="Path" fill="#000000" fill-rule="nonzero"></path>
                    <path d="M27.625,48.75 L11.375,48.75 C10.478,48.75 9.75,48.022 9.75,47.125 C9.75,46.228 10.478,45.5 11.375,45.5 L27.625,45.5 C28.522,45.5 29.25,46.228 29.25,47.125 C29.25,48.022 28.522,48.75 27.625,48.75 Z" id="Path" fill="#000000" fill-rule="nonzero"></path>
                </g>
            </g>
        </g>
    </g>
</svg>