<?xml version="1.0" encoding="UTF-8"?>
<svg width="78px" height="78px" viewBox="0 0 78 78" version="1.1" xmlns="http://www.w3.org/2000/svg" xmlns:xlink="http://www.w3.org/1999/xlink">
    <title>001-group</title>
    <g id="Visual-Design:-Super-Admin" stroke="none" stroke-width="1" fill="none" fill-rule="evenodd">
        <g id="0.3" transform="translate(-531.000000, -488.000000)">
            <g id="001-group" transform="translate(531.000000, 488.000000)">
                <rect id="Rectangle" fill="#F2AF36" x="32" y="2" width="14" height="14" rx="6.5"></rect>
                <rect id="Rectangle-Copy-36" fill="#F2AF36" x="26" y="22" width="26" height="31" rx="3"></rect>
                <rect id="Rectangle-Copy-36" fill="#F2AF36" x="30" y="47" width="18" height="31" rx="3"></rect>
                <path d="M39,0 C33.9742,0 29.9,4.0742 29.9,9.1 C29.9056875,14.1233625 33.9766375,18.1943125 39,18.2 C44.0258,18.2 48.1,14.1258 48.1,9.1 C48.1,4.0742 44.0258,0 39,0 Z M39,15.6 C35.4102125,15.6 32.5,12.6897875 32.5,9.1 C32.504225,5.512 35.412,2.604225 39,2.6 C42.5897875,2.6 45.5,5.5102125 45.5,9.1 C45.5,12.6897875 42.5897875,15.6 39,15.6 Z" id="Shape" fill="#000000" fill-rule="nonzero"></path>
                <path d="M42.9,19.5 L35.1,19.5 C28.641275,19.50715 23.40715,24.741275 23.4,31.2 L23.4,53.3 L28.6,53.3 L28.6,78 L31.2,78 L31.2,48.1 L28.6,48.1 L28.6,50.7 L26,50.7 L26,31.2 C26.0056875,26.1766375 30.0766375,22.1056875 35.1,22.1 L42.9,22.1 C47.9233625,22.1056875 51.9943125,26.1766375 52,31.2 L52,50.7 L49.4,50.7 L49.4,48.1 L46.8,48.1 L46.8,78 L49.4,78 L49.4,53.3 L54.6,53.3 L54.6,31.2 C54.59285,24.741275 49.358725,19.50715 42.9,19.5 Z" id="Path" fill="#000000" fill-rule="nonzero"></path>
                <rect id="Rectangle" fill="#000000" fill-rule="nonzero" x="37.7" y="53.3" width="2.6" height="24.7"></rect>
                <path d="M65,13 C60.692125,13 57.2,16.492125 57.2,20.8 C57.204225,25.1060875 60.6939125,28.595775 65,28.6 C69.307875,28.6 72.8,25.107875 72.8,20.8 C72.8,16.492125 69.307875,13 65,13 Z M65,26 C62.1281375,26 59.8,23.6718625 59.8,20.8 C59.8,17.9281375 62.1281375,15.6 65,15.6 C67.8718625,15.6 70.2,17.9281375 70.2,20.8 C70.2,23.6718625 67.8718625,26 65,26 Z" id="Shape" fill="#000000" fill-rule="nonzero"></path>
                <path d="M68.9,29.9 L57.2,29.9 L57.2,32.5 L68.9,32.5 C72.488,32.504225 75.395775,35.412 75.4,39 L75.4,55.9 L72.8,55.9 L72.8,53.3 L70.2,53.3 L70.2,78 L72.8,78 L72.8,58.5 L78,58.5 L78,39 C77.9943125,33.9766375 73.9233625,29.9056875 68.9,29.9 Z" id="Path" fill="#000000" fill-rule="nonzero"></path>
                <polygon id="Path" fill="#000000" fill-rule="nonzero" points="57.2 53.3 57.2 55.9 52 55.9 52 58.5 57.2 58.5 57.2 78 59.8 78 59.8 53.3"></polygon>
                <rect id="Rectangle" fill="#000000" fill-rule="nonzero" x="63.7" y="58.5" width="2.6" height="19.5"></rect>
                <path d="M13,13 C8.692125,13 5.2,16.492125 5.2,20.8 C5.204225,25.1060875 8.6939125,28.595775 13,28.6 C17.307875,28.6 20.8,25.107875 20.8,20.8 C20.8,16.492125 17.307875,13 13,13 Z M13,26 C10.1281375,26 7.8,23.6718625 7.8,20.8 C7.8,17.9281375 10.1281375,15.6 13,15.6 C15.8718625,15.6 18.2,17.9281375 18.2,20.8 C18.2,23.6718625 15.8718625,26 13,26 Z" id="Shape" fill="#000000" fill-rule="nonzero"></path>
                <path d="M9.1,29.9 C4.0766375,29.9056875 0.0056875,33.9766375 0,39 L0,58.5 L5.2,58.5 L5.2,78 L7.8,78 L7.8,53.3 L5.2,53.3 L5.2,55.9 L2.6,55.9 L2.6,39 C2.604225,35.412 5.512,32.504225 9.1,32.5 L20.8,32.5 L20.8,29.9 L9.1,29.9 Z" id="Path" fill="#000000" fill-rule="nonzero"></path>
                <polygon id="Path" fill="#000000" fill-rule="nonzero" points="20.8 55.9 20.8 53.3 18.2 53.3 18.2 78 20.8 78 20.8 58.5 26 58.5 26 55.9"></polygon>
                <rect id="Rectangle" fill="#000000" fill-rule="nonzero" x="11.7" y="58.5" width="2.6" height="19.5"></rect>
            </g>
        </g>
    </g>
</svg>