<?xml version="1.0" encoding="UTF-8"?>
<svg width="76px" height="78px" viewBox="0 0 76 78" version="1.1" xmlns="http://www.w3.org/2000/svg" xmlns:xlink="http://www.w3.org/1999/xlink">
    <title>001-problem-solving</title>
    <g id="Visual-Design:-Super-Admin" stroke="none" stroke-width="1" fill="none" fill-rule="evenodd">
        <g id="0.3" transform="translate(-70.000000, -488.000000)">
            <g id="001-problem-solving" transform="translate(70.000000, 488.000000)">
                <path d="M58.1539681,53.6174258 L46.9430473,59.4338223 C45.972236,58.4458654 44.6279305,57.833006 43.1443068,57.833006 L35.4189272,57.833006 C35.0752758,57.833006 34.9495089,57.811629 34.9117484,57.8025553 C34.8417086,57.7545723 34.6670662,57.5886312 34.5254641,57.4539098 L34.4516179,57.3836271 C28.1635749,51.4026736 22.8501496,51.7820774 16.8072456,54.1910683 C15.8615573,54.5678576 15.8435906,54.5686265 14.9062766,54.6118419 L13.204464,54.613995 C12.6732281,53.0931504 11.2380231,52 9.55448175,52 L3.87030281,52 C1.73622341,52 0,53.7556844 0,55.9136874 L0,70.970957 C0,73.1266532 1.73622341,74.8803383 3.87030281,74.8803383 L9.55432949,74.8803383 C11.2380231,74.8803383 12.6732281,73.7884183 13.204464,72.2691115 L16.3302143,72.2691115 C16.6840671,72.3000236 17.0290887,72.372767 17.3654316,72.487188 L32.0641775,76.4571631 C32.7077815,76.6334082 33.2987035,76.8068851 33.8702884,76.9746717 C35.7685167,77.5318585 37.3642039,78 39.0279514,78 C40.907604,78 42.8740449,77.4022122 45.4609462,75.6592925 C45.4738883,75.6505264 45.4866782,75.6417603 45.4993158,75.6326866 L63.6225465,62.5973145 C66.0048101,60.8805394 66.699269,57.7817934 65.2372663,55.3881817 C63.7921644,53.0282503 60.7460463,52.2674435 58.1539681,53.6174258 Z M10.3794277,70.9711108 C10.3794277,71.4229504 10.0015178,71.804661 9.55432949,71.804661 L3.87030281,71.804661 C3.42296225,71.804661 3.04520462,71.4229504 3.04520462,70.9711108 L3.04520462,55.9138412 C3.04520462,55.4596948 3.42311451,55.0759849 3.87030281,55.0759849 L9.55432949,55.0759849 C10.00167,55.0759849 10.3794277,55.4596948 10.3794277,55.9138412 L10.3794277,70.9711108 Z M61.8548053,60.0928191 L43.7518251,73.1135809 C40.0671275,75.5907015 38.4989994,75.1302496 34.7195959,74.0211049 C34.1352212,73.8496273 33.5309003,73.6723057 32.8557785,73.4872944 L18.1530738,69.5162427 C17.5615428,69.3309239 16.9537199,69.2232698 16.3299098,69.1934343 L13.4246323,69.1934343 L13.4246323,57.6915178 L15.0448334,57.6845972 C16.203686,57.6312315 16.5630202,57.5949367 17.9248357,57.0523601 C23.1625876,54.9641784 27.2044877,54.7154975 32.365196,59.6242162 L32.4381286,59.6934224 C33.3267193,60.538507 33.8772923,60.9086833 35.4189272,60.9086833 L43.1443068,60.9086833 C44.4179636,60.9086833 45.4540945,61.9553886 45.4540945,63.2418549 C45.4540945,64.5260144 44.4179636,65.5707204 43.1443068,65.5707204 L30.619837,65.5707204 C29.7789037,65.5707204 29.0972347,66.2592452 29.0972347,67.108636 C29.0972347,67.9580267 29.7789037,68.6465515 30.619837,68.6465515 L43.1443068,68.6465515 C46.0970894,68.6465515 48.4992991,66.2220277 48.4992991,63.2418549 C48.4992991,62.8650656 48.460625,62.4971962 48.3876924,62.1419378 L59.5471492,56.3521472 C60.5643998,55.8226428 61.9559061,55.8769313 62.6462539,57.0046847 C63.2549903,58.0014078 62.9142319,59.3293978 61.8548053,60.0928191 L61.8548053,60.0928191 Z" id="Shape" fill="#000000" fill-rule="nonzero"></path>
                <path d="M50.6505212,36 C51.8882744,27.9643049 59.0086647,26.0668937 59,16.1513703 C58.9870592,5.87292964 51.1378627,-0.107879379 43.5,0.00147393879 C35.8621469,-0.107879379 28.0129505,5.87292964 28,16.1513703 C27.9870847,26.0668937 35.1117353,27.9643049 36.3494885,36 C36.4745571,35.9825713 36.5996257,35.9780985 36.7289546,35.9780985 L50.2709029,35.9780985 C50.400384,35.9780985 50.5254526,35.9825713 50.6505212,36 L50.6505212,36 Z" id="Path" fill="#F2AF36"></path>
                <path d="M35.083844,35.7188647 C33.438879,36.5151548 32.3023715,38.1935103 32.3023715,40.1308526 C32.3023715,42.2669276 33.6864215,44.086933 35.6103848,44.7562214 L35.6103848,47.005405 C35.6103848,49.7594241 37.8630371,52 40.631745,52 L47.3640207,52 C50.1351599,52 52.3897877,49.7594241 52.3897877,47.005405 L52.3897877,44.7562214 C54.313751,44.086933 55.697801,42.2667766 55.697801,40.1308526 C55.697801,38.1933593 54.5612935,36.5150038 52.9161765,35.7187137 C53.5816086,33.2620386 54.9305559,31.4328214 56.3492527,29.5140537 C58.5316996,26.5623589 61.0053015,23.2168229 60.9999915,17.3238532 C60.9999915,16.7977249 60.9781007,16.2577034 60.9349441,15.7187389 C60.8683857,14.8872628 60.1379149,14.2688657 59.2995526,14.3330461 C58.4630138,14.3991897 57.8387628,15.126769 57.9053212,15.9582451 C57.9420955,16.4177769 57.9607866,16.8771576 57.9607866,17.3250613 C57.9651934,22.2275385 55.9906275,24.8981986 53.8999644,27.72561 C52.3136559,29.8710478 50.6811516,32.0826292 49.9032693,35.2259592 L38.0962954,35.2259592 C37.3184131,32.0829312 35.6854529,29.8715008 34.0988405,27.726214 C32.0075695,24.8988027 30.0323958,22.2281426 30.0389301,17.3255144 C30.0456163,12.0979067 32.2993323,8.79646647 34.1889527,6.94746662 C36.7908086,4.40139202 40.3547222,2.9703954 43.978356,3.02113568 C43.9929441,3.02128669 44.0073803,3.02128669 44.0219685,3.02113568 C46.9743958,2.97658692 49.9354847,3.93295053 52.3528615,5.70901123 C53.0274111,6.20478602 53.9792874,6.06298507 54.4781715,5.39248855 C54.9770556,4.72184103 54.8345173,3.77619932 54.1596637,3.28042453 C51.216354,1.11822429 47.6091319,-0.0450267623 43.9997823,0.00133414534 C39.5794232,-0.0522753733 35.2286617,1.69207265 32.0568045,4.79598828 C28.7550216,8.02705662 27.00642,12.3585547 27.0000188,17.3220411 C26.9921357,23.217427 29.4669533,26.563416 31.650312,29.5154128 C33.0691608,31.4337275 34.418412,33.2626427 35.083844,35.7188647 L35.083844,35.7188647 Z M49.3507434,47.005556 C49.3507434,48.0942068 48.459651,48.9798964 47.3641727,48.9798964 L40.6318969,48.9798964 C39.53885,48.9798964 38.6497331,48.0942068 38.6497331,47.005556 L38.6497331,45.0313666 L49.3507434,45.0313666 L49.3507434,47.005556 Z M37.2377225,38.2465157 L50.762602,38.2465157 C51.8080856,38.2465157 52.6587566,39.091885 52.6587566,40.1308526 C52.6587566,41.167555 51.8082375,42.010961 50.762602,42.010961 L37.2377225,42.010961 C36.1922389,42.010961 35.3415679,41.167555 35.3415679,40.1308526 C35.3415679,39.091885 36.1922389,38.2465157 37.2377225,38.2465157 Z" id="Shape" fill="#000000" fill-rule="nonzero"></path>
                <path d="M46,10.5849599 C46,9.70958657 45.32845,9 44.5,9 C43.67155,9 43,9.70958657 43,10.5849599 L43,20.4150401 C43,21.2904134 43.67155,22 44.5,22 C45.32845,22 46,21.2904134 46,20.4150401 L46,10.5849599 Z" id="Path" fill="#000000" fill-rule="nonzero"></path>
                <path d="M44.5,26 C43.67155,26 43,26.6705777 43,27.4978281 L43,27.5063658 C43,28.3336163 43.67155,29 44.5,29 C45.32845,29 46,28.3252284 46,27.4979779 C46,26.6707274 45.32845,26 44.5,26 Z" id="Path" fill="#000000" fill-rule="nonzero"></path>
                <path d="M74.350325,17 L67.649675,17 C66.7385595,17 66,17.67155 66,18.5 C66,19.32845 66.7385595,20 67.649675,20 L74.350325,20 C75.2614405,20 76,19.32845 76,18.5 C76,17.67155 75.2614405,17 74.350325,17 L74.350325,17 Z" id="Path" fill="#000000" fill-rule="nonzero"></path>
                <path d="M65.4912941,8 C65.7767095,8 66.0652531,7.9096707 66.3199819,7.72112882 L71.3403729,4.00613113 C72.0235227,3.50061553 72.2055569,2.48038717 71.7470451,1.72720505 C71.2886823,0.974187176 70.3633168,0.773327664 69.6800181,1.27884326 L64.6596271,4.99384095 C63.9764773,5.49935655 63.7944431,6.51974915 64.2529549,7.27276703 C64.5406047,7.74494291 65.0114805,8 65.4912941,8 L65.4912941,8 Z" id="Path" fill="#000000" fill-rule="nonzero"></path>
                <path d="M71.3403697,33.993841 L66.3199542,30.2788433 C65.6368011,29.7733277 64.7112821,29.9741872 64.2529171,30.7272051 C63.7944031,31.4802229 63.9765872,32.5006155 64.6595913,33.0061311 L69.6800068,36.7211288 C69.9347368,36.9096707 70.2232818,37 70.5086986,37 C70.9885146,37 71.4595416,36.7449429 71.7470439,36.272767 C72.2055579,35.5195849 72.0235228,34.4991923 71.3403697,33.993841 Z" id="Path" fill="#000000" fill-rule="nonzero"></path>
                <path d="M13.6504374,20 L20.3495626,20 C21.2610992,20 22,19.32845 22,18.5 C22,17.67155 21.2610992,17 20.3495626,17 L13.6504374,17 C12.7389008,17 12,17.67155 12,18.5 C12,19.32845 12.7389008,20 13.6504374,20 L13.6504374,20 Z" id="Path" fill="#000000" fill-rule="nonzero"></path>
                <path d="M16.6596303,4.00613113 L21.6800458,7.72112882 C21.9347758,7.9096707 22.2233208,8 22.5087376,8 C22.9885536,8 23.4595806,7.74494291 23.7470829,7.27276703 C24.2055969,6.51974915 24.0234128,5.49935655 23.3404087,4.99384095 L18.3199932,1.27884326 C17.6368401,0.773327664 16.7114701,0.974187176 16.2529561,1.72720505 C15.7944421,2.48022293 15.9764772,3.50061553 16.6596303,4.00613113 L16.6596303,4.00613113 Z" id="Path" fill="#000000" fill-rule="nonzero"></path>
                <path d="M21.6800181,30.2788433 L16.6596271,33.993841 C15.9764773,34.4993566 15.7944431,35.5197492 16.2529549,36.272767 C16.5404557,36.7449429 17.0113315,37 17.4912941,37 C17.7767095,37 18.0652531,36.9096707 18.3199819,36.7211288 L23.3403729,33.0061311 C24.0235227,32.5006155 24.2055569,31.4802229 23.7470451,30.7272051 C23.2885334,29.9741872 22.3630189,29.7733277 21.6800181,30.2788433 Z" id="Path" fill="#000000" fill-rule="nonzero"></path>
                <path d="M56.443496,10.5621761 C56.7358862,10.8542085 57.1180927,11 57.5005991,11 C57.8844549,11 58.2686107,10.8531597 58.5619006,10.5600784 C59.1474307,9.97496473 59.1453315,9.02409879 58.5598014,8.43883527 C57.9742712,7.85372158 57.0248277,7.85372158 56.4391476,8.43883527 C55.8536175,9.02394896 55.8536175,9.97271717 56.4391476,10.5579807 L56.443496,10.5621761 Z" id="Path" fill="#000000" fill-rule="nonzero"></path>
            </g>
        </g>
    </g>
</svg>