<svg xmlns="http://www.w3.org/2000/svg" width="100.394" height="103.459" viewBox="0 0 100.394 103.459"><defs><style>.a{fill:#efc039;}.b{fill:#e4b33f;}.c{fill:#fff;}</style></defs><g transform="translate(-3.268 -0.203)"><path class="a" d="M422.406,264.53l-33-34.8a9.69,9.69,0,0,0-14.221,0L334.46,272.677a11.02,11.02,0,0,0,0,15l20.767,21.9C363.675,278.307,418.763,305.785,422.406,264.53Z" transform="translate(-328.247 -226.416)"/><path class="b" d="M435.334,275.99l-7.884-7.884c-3.719,39.926-59.946,13.333-68.568,43.595l20.37,20.371a10.264,10.264,0,0,0,14.515,0l41.567-41.567A10.263,10.263,0,0,0,435.334,275.99Z" transform="translate(-334.68 -231.417)"/></g><g transform="translate(42.234 23.174)"><path class="c" d="M385.186,288.383l-2.214-30.824c-.158-2.529,2.688-4.506,6.323-4.506,3.557,0,6.481,1.977,6.323,4.506l-2.135,30.824c-.079,1.343-1.975,2.529-4.188,2.529S385.264,289.727,385.186,288.383Zm4.031,9.722a5.928,5.928,0,1,1,0,11.855,5.928,5.928,0,0,1,0-11.855Z" transform="translate(-382.966 -253.053)"/></g></svg>