<svg xmlns="http://www.w3.org/2000/svg" width="350" height="157" fill="none" viewBox="0 0 350 157">
    <g clip-path="url(#clip0)" opacity=".7">
        <path fill="#006697" d="M349.729 0H27.863c45.704 69.823 92.962 45.327 138.806 115.149 45.845 69.823-1.413 94.306 44.291 164.154 45.705 69.848 92.924 45.302 138.769 115.175V0z"/>
        <path fill="#005D8A" d="M154.177 0c45.704 69.823 92.962 45.327 138.807 115.149 45.844 69.823-1.414 94.306 44.291 164.154 3.802 5.842 7.961 11.443 12.454 16.772V0H154.177z"/>
        <path fill="#3373BA" d="M228.56 118.776c-.05-1.153-.547-2.242-1.386-3.035-.839-.794-1.955-1.23-3.11-1.215-11.13.14-24.972-6.999-33.25-15.792-.288-.307-.636-.552-1.023-.72-.386-.166-.803-.253-1.224-.253-.422 0-.838.087-1.225.254-.387.167-.735.412-1.023.719-3.414 3.553-7.305 6.615-11.563 9.098 6.979 4.111 14.861 6.783 21.649 6.694 1.162-.018 2.285.422 3.126 1.225.841.802 1.332 1.902 1.369 3.063.637 19.215 3.438 54.056-26.195 72.902 4.342 2.724 8.971 4.961 13.804 6.668 44.291-15.893 40.764-57.81 40.051-79.608z"/>
        <path fill="#3069AA" d="M200.951 118.776c-.047-1.154-.543-2.245-1.382-3.039-.84-.794-1.957-1.229-3.113-1.211-6.839.089-14.722-2.545-21.649-6.693-6.966 4.11-14.849 6.782-21.649 6.693-.584-.027-1.168.061-1.718.26s-1.055.505-1.485.901c-.431.395-.78.871-1.025 1.401-.246.531-.385 1.104-.407 1.688-.637 19.215-3.439 54.056 26.182 72.902 29.684-18.846 26.883-53.687 26.246-72.902z"/>
        <path fill="#42C5E5" d="M188.56 102.45c9.513 9.62 23.814 16.262 35.186 16.262h.382c.054 0 .106.022.144.06.038.038.06.09.06.144 0 .929.063 1.896.101 2.889.408 10.892.955 25.832-3.629 39.575-5.196 15.55-15.74 26.188-32.244 32.461-4.024-1.516-7.885-3.435-11.525-5.726-11.461-7.291-18.707-17.7-22.171-31.813-2.992-12.241-2.546-25.106-2.164-34.497 0-.993.063-1.947.101-2.876 0-.054.022-.106.06-.144.038-.038.09-.06.144-.06h.382c7.208 0 15.549-2.545 23.521-7.291 4.247-2.462 8.163-5.456 11.652-8.908v-.076zm0-4.645c-.42-.001-.836.084-1.221.25-.386.167-.733.41-1.02.717-3.414 3.554-7.306 6.616-11.563 9.099-6.864 3.97-14.594 6.655-21.369 6.655h-.382c-1.154-.014-2.268.422-3.105 1.215-.837.794-1.331 1.883-1.377 3.035-.637 19.215-3.439 54.056 26.182 72.902 4.341 2.724 8.971 4.96 13.804 6.668 44.24-15.855 40.751-57.772 39.999-79.57-.048-1.133-.529-2.205-1.344-2.996-.815-.79-1.901-1.239-3.036-1.254h-.382c-11.079 0-24.744-7.088-32.932-15.792-.289-.307-.638-.552-1.026-.718-.388-.167-.806-.251-1.228-.25v.04z"/>
        <path fill="#FFC222" d="M179.926 165.108c-.385.002-.767-.072-1.123-.218-.356-.147-.68-.362-.953-.634l-11.028-11.033c-.512-.555-.79-1.288-.775-2.043.016-.755.323-1.476.858-2.01.534-.534 1.255-.841 2.011-.857.756-.015 1.489.262 2.045.775l8.914 8.907 26.246-26.226c.556-.512 1.289-.79 2.045-.774.756.015 1.477.322 2.011.856.535.534.842 1.255.858 2.01.015.756-.263 1.488-.775 2.043l-28.322 28.301c-.525.555-1.248.88-2.012.903z"/>
        <path fill="#FFC222" fill-rule="evenodd" d="M125.129 20.36l-9.194 3.983c-.309.062-.629.027-.917-.102-.38-.197-.698-.497-.917-.865-.184-.329-.264-.706-.229-1.082-.004-.16.025-.318.084-.467.059-.149.148-.284.26-.398l8.265-5.383c.233-.107.487-.163.745-.163.257 0 .511.056.744.163.609.232 1.106.687 1.389 1.273.204.231.351.507.431.805.079.298.088.61.027.913.039.265-.006.535-.13.773-.123.237-.318.43-.558.55zm-9.194 8.08l9.194 3.984c.216.11.395.281.517.491.122.21.181.45.171.692.061.302.052.615-.027.913-.08.298-.227.573-.431.805-.283.586-.78 1.041-1.389 1.272-.216.157-.477.24-.744.24-.268 0-.529-.083-.745-.24l-8.265-5.382c-.112-.114-.201-.25-.26-.398-.059-.149-.088-.308-.084-.468-.024-.379.07-.756.267-1.081.248-.341.559-.63.917-.853.279-.116.591-.13.879-.038v.064zm-7.233 3.818c.395-.057.799.019 1.146.216.31.162.554.428.688.751l.802 9.379c.003.266-.071.528-.214.754-.142.226-.346.406-.588.518-.57.285-1.198.433-1.834.433-.637 0-1.265-.148-1.834-.433-.245-.11-.453-.288-.598-.514-.145-.226-.22-.49-.217-.758l.93-9.379c0-.318.229-.534.573-.75.35-.19.749-.27 1.146-.23v.013zm0-24.012c.65-.004 1.287.182 1.834.534.23.107.427.275.568.486.142.211.222.457.234.71l-.802 9.468c-.171.27-.408.494-.688.649-.346.207-.743.317-1.146.317-.404 0-.8-.11-1.146-.317-.344-.216-.573-.433-.573-.649l-.93-9.468c.011-.255.093-.502.237-.713.144-.212.344-.379.578-.483.545-.356 1.182-.547 1.834-.547v.013zM92.274 32.424l9.194-3.983c.296-.114.622-.114.917 0 .358.222.67.512.917.852.185.33.265.706.229 1.082.004.16-.025.319-.084.467-.059.149-.147.284-.259.398l-8.278 5.383c-.217.156-.477.24-.745.24-.267 0-.528-.084-.745-.24-.603-.234-1.095-.69-1.375-1.273-.362-.495-.526-1.108-.459-1.718-.009-.254.05-.506.17-.73.122-.223.3-.41.518-.542v.064zm2.636-16.378l8.278 5.383c.112.114.2.25.259.398.059.149.088.307.084.467.036.376-.044.753-.229 1.082-.218.368-.536.668-.917.865-.286.134-.608.17-.917.102l-9.194-3.983c-.212-.137-.387-.325-.507-.548-.12-.222-.182-.472-.18-.724-.068-.61.096-1.223.458-1.718.28-.584.772-1.039 1.375-1.273.225-.125.475-.2.733-.22.257-.02.515.016.757.106v.063z" clip-rule="evenodd"/>
        <path fill="#FFC222" fill-rule="evenodd" d="M125.129 20.36l-9.194 3.983c-.309.062-.629.027-.917-.102-.38-.197-.698-.497-.917-.865-.184-.329-.264-.706-.229-1.082-.004-.16.025-.318.084-.467.059-.149.148-.284.26-.398l8.265-5.383c.233-.107.487-.163.745-.163.257 0 .511.056.744.163.609.232 1.106.687 1.389 1.273.204.231.351.507.431.805.079.298.088.61.027.913.039.265-.006.535-.13.773-.123.237-.318.43-.558.55zm-9.194 8.08l9.194 3.984c.216.11.395.281.517.491.122.21.181.45.171.692.061.302.052.615-.027.913-.08.298-.227.573-.431.805-.283.586-.78 1.041-1.389 1.272-.216.157-.477.24-.744.24-.268 0-.529-.083-.745-.24l-8.265-5.382c-.112-.114-.201-.25-.26-.398-.059-.149-.088-.308-.084-.468-.024-.379.07-.756.267-1.081.248-.341.559-.63.917-.853.279-.116.591-.13.879-.038v.064zm-7.233 3.818c.395-.057.799.019 1.146.216.31.162.554.428.688.751l.802 9.379c.003.266-.071.528-.214.754-.142.226-.346.406-.588.518-.57.285-1.198.433-1.834.433-.637 0-1.265-.148-1.834-.433-.245-.11-.453-.288-.598-.514-.145-.226-.22-.49-.217-.758l.93-9.379c0-.318.229-.534.573-.75.35-.19.749-.27 1.146-.23v.013zm0-24.012c.65-.004 1.287.182 1.834.534.23.107.427.275.568.486.142.211.222.457.234.71l-.802 9.468c-.171.27-.408.494-.688.649-.346.207-.743.317-1.146.317-.404 0-.8-.11-1.146-.317-.344-.216-.573-.433-.573-.649l-.93-9.468c.011-.255.093-.502.237-.713.144-.212.344-.379.578-.483.545-.356 1.182-.547 1.834-.547v.013zM92.274 32.424l9.194-3.983c.296-.114.622-.114.917 0 .358.222.67.512.917.852.185.33.265.706.229 1.082.004.16-.025.319-.084.467-.059.149-.147.284-.259.398l-8.278 5.383c-.217.156-.477.24-.745.24-.267 0-.528-.084-.745-.24-.603-.234-1.095-.69-1.375-1.273-.362-.495-.526-1.108-.459-1.718-.009-.254.05-.506.17-.73.122-.223.3-.41.518-.542v.064zm2.636-16.378l8.278 5.383c.112.114.2.25.259.398.059.149.088.307.084.467.036.376-.044.753-.229 1.082-.218.368-.536.668-.917.865-.286.134-.608.17-.917.102l-9.194-3.983c-.212-.137-.387-.325-.507-.548-.12-.222-.182-.472-.18-.724-.068-.61.096-1.223.458-1.718.28-.584.772-1.039 1.375-1.273.225-.125.475-.2.733-.22.257-.02.515.016.757.106v.063z" clip-rule="evenodd"/>
        <path fill="#42C5E5" d="M327.749 56.283h-53.281c-1.245 0-2.254 1.009-2.254 2.252v42.617c0 1.244 1.009 2.252 2.254 2.252h53.281c1.245 0 2.254-1.008 2.254-2.252V58.535c0-1.243-1.009-2.252-2.254-2.252z"/>
        <path fill="#42C5E5" d="M322.311 56.283h-8.239v-9.2c0-1.695-.334-3.373-.983-4.938-.649-1.566-1.6-2.988-2.799-4.186-1.199-1.198-2.622-2.149-4.189-2.797-1.567-.649-3.246-.982-4.942-.982-1.695 0-3.375.333-4.941.982-1.567.648-2.99 1.599-4.189 2.797-1.199 1.198-2.151 2.62-2.8 4.186-.648 1.565-.983 3.243-.983 4.938v9.226h-8.29v-9.226c0-5.62 2.234-11.008 6.211-14.982 3.976-3.973 9.369-6.206 14.992-6.206 5.624 0 11.017 2.233 14.993 6.206 3.976 3.974 6.21 9.363 6.21 14.982l-.051 9.2z"/>
        <path fill="#006697" d="M301.109 69.504c1.568.003 3.083.57 4.266 1.6 1.184 1.028 1.957 2.448 2.177 4 .056-.346.086-.695.089-1.044 0-1.731-.688-3.392-1.913-4.616-1.225-1.224-2.887-1.912-4.619-1.912-1.733 0-3.395.688-4.62 1.912s-1.913 2.885-1.913 4.616c.004.35.033.698.089 1.043.22-1.551.993-2.971 2.177-4 1.183-1.028 2.698-1.596 4.267-1.599z"/>
        <path fill="#3373BA" d="M307.96 89.992c-.586-2.1-2.827-10.18-2.98-10.69 1.365-1.013 2.28-2.52 2.547-4.199-.219-1.552-.992-2.972-2.176-4-1.184-1.029-2.699-1.595-4.268-1.595-1.568 0-3.084.566-4.268 1.595-1.184 1.028-1.957 2.448-2.176 4 .271 1.678 1.185 3.184 2.547 4.2l-2.967 10.689c-.059.213-.073.436-.043.654.031.22.106.43.221.618.147.26.36.475.617.624.258.15.55.23.848.229h10.417c.297-.002.589-.082.845-.232.257-.15.471-.363.619-.62.123-.186.205-.395.242-.614.038-.22.029-.444-.025-.66z"/>
        <path fill="#FFE7A7" d="M349.729 146.262h-38.891c-1.091 0-2.138.433-2.909 1.204-.771.771-1.205 1.816-1.205 2.906v59.592h-3.374c-.119-.001-.235.025-.342.076-.107.05-.201.124-.276.215-.074.092-.127.199-.155.314-.028.115-.029.234-.004.349.221.935.751 1.768 1.504 2.363.754.596 1.686.92 2.647.921h41.961c.352.003.703-.04 1.044-.128v-67.812z"/>
        <path fill="#005D8A" d="M174.756 75.664c3.404 0 6.163-2.758 6.163-6.16 0-3.4-2.759-6.158-6.163-6.158-3.404 0-6.164 2.757-6.164 6.159 0 3.401 2.76 6.159 6.164 6.159z"/>
        <path fill="#fff" d="M231.094 100.325c2.257 0 4.087-1.829 4.087-4.085 0-2.256-1.83-4.085-4.087-4.085-2.258 0-4.088 1.83-4.088 4.085 0 2.256 1.83 4.085 4.088 4.085zM62.794 18.4c2.257 0 4.088-1.828 4.088-4.084 0-2.256-1.83-4.085-4.088-4.085s-4.088 1.829-4.088 4.085c0 2.256 1.83 4.085 4.088 4.085z"/>
        <path fill="#006697" d="M249.903 51.957c3.404 0 6.163-2.758 6.163-6.16 0-3.4-2.759-6.158-6.163-6.158-3.404 0-6.164 2.757-6.164 6.159 0 3.401 2.76 6.159 6.164 6.159zM338.115 20.475c3.404 0 6.164-2.758 6.164-6.16 0-3.4-2.76-6.158-6.164-6.158s-6.164 2.757-6.164 6.159c0 3.401 2.76 6.159 6.164 6.159z"/>
        <path fill="#005D8A" d="M242.058 150.067c6.24-.954 8.214-2.927 9.169-9.162.033-.175.126-.334.263-.448.137-.114.31-.177.488-.177.179 0 .352.063.489.177.137.114.23.273.263.448.955 6.235 2.929 8.208 9.169 9.162.175.032.334.125.448.262.114.138.177.31.177.489 0 .178-.063.351-.177.488-.114.137-.273.23-.448.263-6.24.954-8.214 2.926-9.169 9.162-.033.175-.126.334-.263.448-.137.114-.31.176-.489.176-.178 0-.351-.062-.488-.176-.137-.114-.23-.273-.263-.448-.955-6.236-2.929-8.208-9.169-9.162-.175-.033-.334-.126-.448-.263-.114-.137-.177-.31-.177-.488 0-.179.063-.351.177-.489.114-.137.273-.23.448-.262z"/>
        <path fill="#006697" d="M325.533 124.261c6.228-.955 8.201-2.927 9.169-9.162.024-.181.113-.347.25-.467.137-.12.313-.187.495-.187.183 0 .359.067.496.187s.226.286.249.467c.968 6.235 2.942 8.207 9.169 9.162.176.032.334.125.449.262.114.137.176.31.176.488 0 .179-.062.352-.176.489-.115.137-.273.23-.449.262-6.227.955-8.201 2.927-9.169 9.162-.023.181-.112.347-.249.467-.137.12-.313.186-.496.186-.182 0-.358-.066-.495-.186s-.226-.286-.25-.467c-.968-6.235-2.941-8.207-9.169-9.162-.175-.032-.334-.125-.448-.262-.114-.137-.177-.31-.177-.489 0-.178.063-.351.177-.488.114-.137.273-.23.448-.262z"/>
        <path fill="#5B8FC8" d="M195.641 6.948c-14.925 0-30.563 11.707-36.74 17-.372.286-.674.653-.881 1.073-.208.42-.316.883-.316 1.352 0 .469.108.931.316 1.351.207.42.509.788.881 1.073 6.177 5.294 21.827 17.013 36.74 17.013 14.912 0 30.728-11.656 36.93-16.975.38-.287.688-.658.9-1.084.212-.426.322-.896.322-1.372 0-.476-.11-.945-.322-1.371-.212-.426-.52-.798-.9-1.085-6.189-5.319-22.031-16.975-36.93-16.975z"/>
        <path fill="#006697" d="M195.793 43.15c9.277 0 16.797-7.514 16.797-16.784s-7.52-16.784-16.797-16.784c-9.276 0-16.796 7.514-16.796 16.784s7.52 16.785 16.796 16.785z"/>
        <path fill="#fff" d="M195.794 37.17c5.971 0 10.811-4.837 10.811-10.803 0-5.967-4.84-10.804-10.811-10.804-5.972 0-10.812 4.837-10.812 10.804 0 5.966 4.84 10.803 10.812 10.803z"/>
        <path fill="#42C5E5" d="M195.794 32.5c3.39 0 6.138-2.746 6.138-6.134 0-3.387-2.748-6.133-6.138-6.133-3.39 0-6.138 2.746-6.138 6.133 0 3.388 2.748 6.134 6.138 6.134z"/>
    </g>
    <defs>
        <clipPath id="clip0">
            <rect width="350" height="157" fill="#fff" rx="12"/>
        </clipPath>
    </defs>
</svg>
