<svg xmlns="http://www.w3.org/2000/svg" width="332.932" height="38.613" viewBox="0 0 332.932 38.613">
  <g id="Group_263" data-name="Group 263" transform="translate(-420.78 -1316.413)">
    <g id="Group_259" data-name="Group 259" transform="translate(546.613 1316.413)">
      <g id="Group_257" data-name="Group 257" transform="translate(0)">
        <path id="Path_330" data-name="Path 330" d="M636.968,1329.412a1.654,1.654,0,0,0,1.749-1.078l.894-10.1c0-1-1.17-1.819-2.641-1.819s-2.637.821-2.637,1.819l.892,10.1a1.649,1.649,0,0,0,1.745,1.078Z" transform="translate(-619.772 -1316.413)" fill="#ffaa1a"/>
        <path id="Path_331" data-name="Path 331" d="M623.919,1336.791a1.649,1.649,0,0,0-.059-2.054l-8.3-5.823c-.862-.5-2.158.1-2.893,1.375s-.606,2.694.256,3.193l9.193,4.281a1.661,1.661,0,0,0,1.809-.978Z" transform="translate(-612.183 -1320.635)" fill="#ffaa1a"/>
        <path id="Path_332" data-name="Path 332" d="M646.487,1336.785a1.661,1.661,0,0,0,1.809.978l9.195-4.281c.866-.5.99-1.92.258-3.193s-2.035-1.875-2.9-1.375l-8.3,5.823a1.655,1.655,0,0,0-.058,2.054Z" transform="translate(-623.827 -1320.635)" fill="#ffaa1a"/>
      </g>
      <g id="Group_258" data-name="Group 258" transform="translate(0 21.431)">
        <path id="Path_333" data-name="Path 333" d="M636.968,1355.38a1.652,1.652,0,0,1,1.749,1.075l.894,10.1c0,1-1.17,1.818-2.641,1.818s-2.637-.819-2.637-1.818l.892-10.1a1.647,1.647,0,0,1,1.745-1.075Z" transform="translate(-619.772 -1351.193)" fill="#ffaa1a"/>
        <path id="Path_334" data-name="Path 334" d="M646.487,1350.043a1.653,1.653,0,0,1,1.809-.974l9.195,4.276c.866.5.99,1.924.258,3.2s-2.035,1.873-2.9,1.375l-8.3-5.819a1.66,1.66,0,0,1-.058-2.056Z" transform="translate(-623.827 -1349.011)" fill="#ffaa1a"/>
        <path id="Path_335" data-name="Path 335" d="M623.919,1350.041a1.654,1.654,0,0,1-.059,2.056l-8.3,5.819c-.862.5-2.158-.106-2.893-1.375s-.606-2.7.256-3.2l9.193-4.276a1.654,1.654,0,0,1,1.81.974Z" transform="translate(-612.183 -1349.011)" fill="#ffaa1a"/>
      </g>
    </g>
    <g id="Group_260" data-name="Group 260" transform="translate(420.78 1324.516)">
      <path id="Path_336" data-name="Path 336" d="M557.456,1343.811c0-3.816-1.629-7.171-7.136-7.171a13.044,13.044,0,0,0-6.3,1.5l.9,3.066a9.228,9.228,0,0,1,4.591-1.291c2.793-.007,3.251,1.581,3.251,2.6v.24c-6.09-.009-9.938,2.1-9.938,6.395a5.07,5.07,0,0,0,5.367,5.081,6.1,6.1,0,0,0,4.9-2.176h.1s.7,2.91,4.53,1.8a24.635,24.635,0,0,1-.266-4.057Zm-4.546,4.029a2.977,2.977,0,0,1-3.184,3.064,2.077,2.077,0,0,1-2.26-2.227c0-2.312,2.546-2.952,5.443-2.937Z" transform="translate(-462.59 -1331.445)" fill="#fff"/>
      <path id="Path_337" data-name="Path 337" d="M420.78,1328.739s3.979,16.3,4.614,18.949c.741,3.089,2.076,4.225,5.926,3.459l2.484-10.109c.63-2.511,1.052-4.3,1.457-6.854h.071a66.878,66.878,0,0,0,1.208,6.864s1.011,4.589,1.529,7,1.964,3.928,5.735,3.1l5.92-22.408h-4.779l-2.021,9.688c-.544,2.82-1.036,5.023-1.416,7.6h-.068c-.345-2.555-.785-4.67-1.337-7.418l-2.1-9.873h-4.979l-2.251,9.625c-.637,2.924-1.234,5.286-1.613,7.778h-.068c-.389-2.347-.906-5.315-1.466-8.146,0,0-1.337-6.884-1.807-9.257Z" transform="translate(-420.78 -1328.739)" fill="#fff"/>
      <path id="Path_338" data-name="Path 338" d="M477.843,1343.811c0-3.816-1.629-7.171-7.134-7.171a13.036,13.036,0,0,0-6.3,1.5l.9,3.066a9.228,9.228,0,0,1,4.591-1.291c2.8-.007,3.253,1.581,3.253,2.6v.24c-6.091-.009-9.938,2.1-9.938,6.395a5.068,5.068,0,0,0,5.364,5.081,6.1,6.1,0,0,0,4.9-2.176h.1s.7,2.91,4.53,1.8a24.556,24.556,0,0,1-.267-4.057Zm-4.545,4.029a2.975,2.975,0,0,1-3.183,3.064,2.077,2.077,0,0,1-2.26-2.227c0-2.312,2.546-2.952,5.443-2.937Z" transform="translate(-435.317 -1331.445)" fill="#fff"/>
      <path id="Path_339" data-name="Path 339" d="M494.633,1346.389v-17.65h-4.55v22.408h4.55Z" transform="translate(-444.522 -1328.739)" fill="#fff"/>
      <path id="Path_340" data-name="Path 340" d="M587.563,1328.739v16.53c0,2.279.429,3.876,1.346,4.851a5.042,5.042,0,0,0,3.7,1.406,10.8,10.8,0,0,0,3.293-.488l-.058-3.555a6.914,6.914,0,0,1-1.729.205c-1.549,0-2.07-.993-2.07-3.039v-6.324h3.963v-4.287H592.05v-5.3Z" transform="translate(-477.916 -1328.739)" fill="#fff"/>
      <path id="Path_341" data-name="Path 341" d="M569.7,1337.02v16.834h4.695v-8.62a6.4,6.4,0,0,1,.1-1.243,3.544,3.544,0,0,1,3.711-2.96,8.568,8.568,0,0,1,1.355.12v-4.407a4.5,4.5,0,0,0-1.034-.1,4.955,4.955,0,0,0-4.582,3.555h-.127v-3.175Z" transform="translate(-471.795 -1331.445)" fill="#fff"/>
      <path id="Path_342" data-name="Path 342" d="M501.852,1337.02v16.834h4.574v-9.872a3.964,3.964,0,0,1,.214-1.378,3.1,3.1,0,0,1,2.78-2.156c1.846,0,2.709,1.561,2.709,3.812v9.594h4.57v-9.991a4.676,4.676,0,0,1,.191-1.365,2.885,2.885,0,0,1,2.745-2.05c1.872,0,2.769,1.533,2.769,4.182v9.224h4.573v-9.914c0-5.229-2.655-7.3-5.652-7.3a6.091,6.091,0,0,0-3.322.914,7.081,7.081,0,0,0-2.132,2.1H515.8a4.8,4.8,0,0,0-4.639-3.011,5.3,5.3,0,0,0-4.9,2.667h-.068v-2.287Z" transform="translate(-448.553 -1331.445)" fill="#fff"/>
    </g>
    <g id="Group_261" data-name="Group 261" transform="translate(588.411 1324.756)">
      <path id="Path_343" data-name="Path 343" d="M686.72,1340.029a5.567,5.567,0,0,1,3.768,5.13c0,3.547-2.755,6.112-6.682,6.112h-7.442a.6.6,0,0,1-.6-.6v-20.964a.6.6,0,0,1,.6-.6h7c3.864,0,6.429,2.5,6.429,5.827a5.839,5.839,0,0,1-3.072,5.035Zm-3.071,9.121a3.917,3.917,0,0,0,4.18-4.022,4.038,4.038,0,0,0-4.307-3.9h-5.447v7.918Zm-.7-10.1a3.86,3.86,0,0,0,4.15-3.959c0-2.28-1.552-3.8-4.15-3.8h-4.813v7.759Z" transform="translate(-675.762 -1329.103)" fill="#fff"/>
      <path id="Path_344" data-name="Path 344" d="M704.381,1340.846a.532.532,0,0,1,.57-.57c.918,0,1.425.7,1.52,1.647a6.037,6.037,0,0,1,4.5-1.837c1.108,0,2.914.158,2.565,1.172l-.411,1.14a.555.555,0,0,1-.855.349,3.681,3.681,0,0,0-1.584-.412,4.621,4.621,0,0,0-3.958,1.869v10.134a.725.725,0,0,1-.7.7h-.95a.7.7,0,0,1-.7-.7Z" transform="translate(-685.566 -1332.866)" fill="#fff"/>
      <path id="Path_345" data-name="Path 345" d="M726.861,1345.755a12.584,12.584,0,0,1,3.136.475c.031-2.692-1.268-4.022-3.357-4.022a8.869,8.869,0,0,0-3.389.855c-.38.158-.57-.032-.7-.381l-.317-.855c-.127-.443.095-.633.443-.791a9.415,9.415,0,0,1,4.085-.951c3.737,0,5.479,2.217,5.479,6.144v8.36a.532.532,0,0,1-.57.571c-.95,0-1.457-.728-1.552-1.71a6.364,6.364,0,0,1-4.592,1.931A4.443,4.443,0,0,1,721,1350.6C721,1347.813,723.093,1345.755,726.861,1345.755Zm-.918,7.506a5.089,5.089,0,0,0,4.021-1.964v-2.977a7.5,7.5,0,0,0-3.1-.57c-2.027,0-3.547.981-3.547,2.851A2.535,2.535,0,0,0,725.943,1353.261Z" transform="translate(-691.261 -1332.866)" fill="#fff"/>
      <path id="Path_346" data-name="Path 346" d="M745.428,1340.846a.532.532,0,0,1,.571-.57c.918,0,1.424.7,1.52,1.647a7.6,7.6,0,0,1,4.908-1.837c4.244,0,5.289,2.755,5.289,6.524v7.727a.724.724,0,0,1-.7.7h-.951a.7.7,0,0,1-.7-.7v-8.044c0-2.787-.95-4.085-3.1-4.085a6.4,6.4,0,0,0-4.5,2.027v10.1a.725.725,0,0,1-.7.7h-.95a.7.7,0,0,1-.7-.7Z" transform="translate(-699.628 -1332.866)" fill="#fff"/>
      <path id="Path_347" data-name="Path 347" d="M776.934,1336.323a9.02,9.02,0,0,1,4.054.919V1329.8a.724.724,0,0,1,.7-.7h.887a.754.754,0,0,1,.728.7v21.028a.532.532,0,0,1-.57.571c-.918,0-1.425-.7-1.551-1.647a7.285,7.285,0,0,1-4.624,1.868c-3.705,0-6.556-3.515-6.556-7.7C770,1339.649,772.532,1336.323,776.934,1336.323Zm-.095,13.175a5.4,5.4,0,0,0,4.148-2.344v-7.885a9.617,9.617,0,0,0-3.737-.824c-3.135,0-4.876,2.6-4.876,5.511C772.374,1346.806,774.179,1349.5,776.839,1349.5Z" transform="translate(-708.045 -1329.103)" fill="#fff"/>
      <path id="Path_348" data-name="Path 348" d="M810.178,1329.705a.6.6,0,0,1,.6-.6h7a7.062,7.062,0,1,1,.031,14.124h-5.225v7.443a.623.623,0,0,1-.6.6h-1.2a.6.6,0,0,1-.6-.6Zm7.442,11.179a4.72,4.72,0,0,0,4.814-4.846,4.518,4.518,0,0,0-4.814-4.528h-5.035v9.374Z" transform="translate(-721.81 -1329.103)" fill="#fff"/>
      <path id="Path_349" data-name="Path 349" d="M842.77,1340.086a7.654,7.654,0,1,1-7.347,7.6A7.532,7.532,0,0,1,842.77,1340.086Zm0,13.175c2.882,0,5-2.534,5-5.574a5.039,5.039,0,1,0-10.039,0C837.734,1350.727,839.889,1353.261,842.77,1353.261Z" transform="translate(-730.458 -1332.866)" fill="#fff"/>
      <path id="Path_350" data-name="Path 350" d="M863.849,1340.846a.532.532,0,0,1,.569-.57c.919,0,1.425.7,1.521,1.647a6.035,6.035,0,0,1,4.5-1.837c1.108,0,2.913.158,2.565,1.172l-.411,1.14a.555.555,0,0,1-.855.349,3.68,3.68,0,0,0-1.584-.412,4.621,4.621,0,0,0-3.958,1.869v10.134a.724.724,0,0,1-.7.7h-.95a.7.7,0,0,1-.7-.7Z" transform="translate(-740.197 -1332.866)" fill="#fff"/>
      <path id="Path_351" data-name="Path 351" d="M880.571,1340.085a.691.691,0,0,1-.728-.7v-.633a.674.674,0,0,1,.728-.7H882.5V1334a.749.749,0,0,1,.7-.7l.982-.063a.657.657,0,0,1,.665.7v4.117h4.307a.691.691,0,0,1,.728.7v.633a.709.709,0,0,1-.728.7h-4.307v8.646a1.943,1.943,0,0,0,1.964,2.186,4.478,4.478,0,0,0,2.248-.633c.57-.349.792-.064.918.285l.253.633c.19.475.127.729-.253.95a7.454,7.454,0,0,1-3.451.887,4.017,4.017,0,0,1-4.022-4.307v-8.646Z" transform="translate(-745.676 -1330.521)" fill="#fff"/>
      <path id="Path_352" data-name="Path 352" d="M904.829,1345.755a12.574,12.574,0,0,1,3.135.475c.032-2.692-1.267-4.022-3.357-4.022a8.861,8.861,0,0,0-3.388.855c-.38.158-.571-.032-.7-.381l-.316-.855c-.127-.443.095-.633.443-.791a9.413,9.413,0,0,1,4.086-.951c3.737,0,5.478,2.217,5.478,6.144v8.36a.532.532,0,0,1-.57.571c-.95,0-1.457-.728-1.552-1.71a6.361,6.361,0,0,1-4.592,1.931,4.443,4.443,0,0,1-4.528-4.781C898.97,1347.813,901.06,1345.755,904.829,1345.755Zm-.918,7.506a5.091,5.091,0,0,0,4.022-1.964v-2.977a7.5,7.5,0,0,0-3.1-.57c-2.027,0-3.547.981-3.547,2.851A2.535,2.535,0,0,0,903.911,1353.261Z" transform="translate(-752.228 -1332.866)" fill="#fff"/>
      <path id="Path_353" data-name="Path 353" d="M923.636,1329.8a.725.725,0,0,1,.7-.7h.951a.749.749,0,0,1,.7.7v20.775a.724.724,0,0,1-.7.7h-.951a.7.7,0,0,1-.7-.7Z" transform="translate(-760.678 -1329.103)" fill="#fff"/>
    </g>
  </g>
</svg>
