<?xml version="1.0" encoding="UTF-8"?>
<svg width="172px" height="42px" viewBox="0 0 172 42" version="1.1" xmlns="http://www.w3.org/2000/svg" xmlns:xlink="http://www.w3.org/1999/xlink">
    <title>BrandLogos_WMT blu</title>
    <g id="Visual-Design:-Super-Admin" stroke="none" stroke-width="1" fill="none" fill-rule="evenodd">
        <g id="0.3" transform="translate(-40.000000, -28.000000)">
            <g id="BrandLogos_WMT-blu" transform="translate(40.000000, 28.000000)">
                <path d="M62.0122111,14.8384091 L62.0122111,17.2954091 L62.0848333,17.2954091 C62.9190333,15.9800455 64.2950333,14.4303409 67.3566333,14.4303409 C69.7388333,14.4303409 71.5672889,15.7156364 72.3446333,17.6643409 L72.4172556,17.6643409 C73.0871,16.6825909 73.8539333,15.9370909 74.7101111,15.4120909 C75.7282556,14.7878182 76.8548556,14.4303409 78.2819778,14.4303409 C81.5045889,14.4303409 84.3588333,16.6539545 84.3588333,22.2700227 L84.3588333,32.9189318 L79.4420222,32.9189318 C79.4420222,30.6499773 79.4420222,23.0121818 79.4420222,23.0121818 C79.4420222,20.1657273 78.4764333,18.5191364 76.4645111,18.5191364 C74.9891333,18.5191364 73.917,19.5075682 73.5132778,20.72175 C73.3732889,21.1412727 73.3083111,21.7130455 73.3083111,22.1874545 L73.3083111,32.9189318 L68.3948444,32.9189318 L68.3948444,22.6146136 C68.3948444,20.1953182 67.4660444,18.5191364 65.4818333,18.5191364 C63.8941778,18.5191364 62.8999222,19.7681591 62.4923778,20.8358182 C62.3189444,21.2930455 62.2616111,21.8185227 62.2616111,22.3158409 L62.2616111,32.9189318 L57.3433667,32.9189318 L57.3433667,14.8384091 L62.0122111,14.8384091 Z M109.728833,14.8384091 L109.728833,18.2485227 L109.865478,18.2485227 C110.765133,15.645 112.907967,14.4303409 114.791844,14.4303409 C115.263889,14.4303409 115.5238,14.4656591 115.903633,14.5420227 L115.903633,19.2760909 C115.4507,19.2107045 115.032167,19.1472273 114.446889,19.1472273 C112.315522,19.1472273 110.831067,20.3871818 110.456967,22.3263409 C110.378133,22.7258182 110.348033,23.1610909 110.348033,23.6607955 L110.348033,32.9189318 L105.300311,32.9189318 L105.300311,14.8384091 L109.728833,14.8384091 Z M122.755922,8.85054545 L122.755922,14.5420227 L127.016744,14.5420227 L127.016744,19.1472273 L122.755922,19.1472273 L122.755922,25.9397727 C122.755922,28.1380909 123.314922,29.2043182 124.980933,29.2043182 C125.7664,29.2043182 126.340689,29.106 126.839967,28.9833409 L126.902556,32.8024773 C126.231756,33.0525682 124.808933,33.3265227 123.362222,33.3265227 C121.660856,33.3265227 120.2409,32.7332727 119.378511,31.8169091 C118.392378,30.7692955 117.930844,29.0539773 117.930844,26.6065227 C117.930844,26.6065227 117.930844,11.1600682 117.930844,8.85054545 L122.755922,8.85054545 Z M49.0243,32.9189318 L53.9162667,32.9189318 L53.9162667,8.85054545 L49.0243,8.85054545 L49.0243,32.9189318 Z M40.8729333,26.46 C40.8729333,26.7936136 40.8437889,27.1377273 40.7515778,27.4388864 C40.3727,28.6917273 39.0736222,29.7503182 37.4496556,29.7503182 C36.0956333,29.7503182 35.0201556,28.9823864 35.0201556,27.3587045 C35.0201556,24.8749773 37.7573444,24.1881818 40.8729333,24.2048864 L40.8729333,26.46 Z M45.7601222,22.1325682 C45.7601222,18.0342273 44.0085889,14.4303409 38.0889222,14.4303409 C35.0483444,14.4303409 32.6346111,15.2832273 31.3192889,16.0430455 L32.2820111,19.33575 C33.4860111,18.5778409 35.4033333,17.94975 37.2184111,17.94975 C40.2236333,17.9421136 40.7157444,19.6478864 40.7157444,20.7413182 L40.7157444,21.0004773 C34.1663667,20.9904545 30.0297667,23.2541591 30.0297667,27.8684318 C30.0297667,30.68625 32.1358111,33.3265227 35.7975,33.3265227 C38.0516556,33.3265227 39.9364889,32.4282955 41.0664333,30.9893182 L41.1772778,30.9893182 C41.1772778,30.9893182 41.925,34.1140227 46.0467889,32.9189318 C45.8303556,31.6183636 45.7601222,30.2323636 45.7601222,28.5619091 L45.7601222,22.1325682 Z M5.44666667,8.85054545 C5.9512,11.3996591 7.38883333,18.7940455 7.38883333,18.7940455 C7.99131111,21.83475 8.54792222,25.0224545 8.9655,27.5434091 L9.03907778,27.5434091 C9.44662222,24.8663864 10.0882778,22.3301591 10.7738889,19.1882727 L13.1943111,8.85054545 L18.5478111,8.85054545 L20.8105667,19.4555455 C21.4049222,22.4065227 21.8774444,24.6788182 22.2486778,27.4231364 L22.3217778,27.4231364 C22.7307556,24.6520909 23.2601333,22.2852955 23.8444556,19.2565227 L26.0178667,8.85054545 L31.1563667,8.85054545 L24.7914111,32.9189318 C20.7365111,33.8071364 19.1832556,32.1767727 18.6247333,29.5885227 C18.0676444,26.9997955 16.9807,22.0714773 16.9807,22.0714773 C16.4236111,19.3734545 15.9878778,17.4696136 15.6821,14.6995227 L15.6056556,14.6995227 C15.1704,17.4424091 14.7160333,19.3648636 14.0390222,22.0614545 L11.3677667,32.9189318 C7.22782222,33.7427045 5.7921,32.5218409 4.99564444,29.2043182 C4.31242222,26.3616818 0.0348777778,8.85054545 0.0348777778,8.85054545 L5.44666667,8.85054545 Z M97.1499,26.46 C97.1499,26.7936136 97.1202778,27.1377273 97.0285444,27.4388864 C96.6496667,28.6917273 95.3505889,29.7503182 93.7266222,29.7503182 C92.3726,29.7503182 91.2966444,28.9823864 91.2966444,27.3587045 C91.2966444,24.8749773 94.0338333,24.1881818 97.1499,24.2048864 L97.1499,26.46 Z M102.038044,22.1325682 C102.038044,18.0342273 100.286033,14.4303409 94.3658889,14.4303409 C91.3253111,14.4303409 88.9130111,15.2832273 87.5957778,16.0430455 L88.5599333,19.33575 C89.7629778,18.5778409 91.6812556,17.94975 93.4958556,17.94975 C96.4996444,17.9421136 96.9917556,19.6478864 96.9917556,20.7413182 L96.9917556,21.0004773 C90.4438111,20.9904545 86.3067333,23.2541591 86.3067333,27.8684318 C86.3067333,30.68625 88.4137333,33.3265227 92.0773333,33.3265227 C94.3295778,33.3265227 96.2153667,32.4282955 97.3424444,30.9893182 L97.4547222,30.9893182 C97.4547222,30.9893182 98.2024444,34.1140227 102.324711,32.9189318 C102.1078,31.6183636 102.038044,30.2323636 102.038044,28.5619091 L102.038044,22.1325682 L102.038044,22.1325682 Z" id="Fill-1" fill="#1066A3"></path>
                <path d="M147.5975,24.2731364 C148.082444,25.1145682 148.045656,26.0567045 147.532044,26.481 L138.603811,32.7318409 C137.676444,33.2668636 136.283244,32.6187273 135.493478,31.2546818 C134.700844,29.8868182 134.841789,28.3585909 135.768678,27.8207045 L145.653422,23.2279091 C146.272144,22.995 147.1116,23.4312273 147.5975,24.2731364 Z M159.343667,24.2731364 C159.830522,23.4312273 160.667111,22.995 161.285833,23.2279091 L171.172967,27.8207045 C172.103678,28.3585909 172.237456,29.8868182 171.450556,31.2546818 C170.656489,32.6187273 169.262811,33.2668636 168.336878,32.7318409 L159.408167,26.481 C158.897422,26.0567045 158.857767,25.1131364 159.343667,24.2731364 Z M153.468433,27.6627273 C154.440711,27.6627273 155.240033,28.1643409 155.348011,28.8177273 L156.3093,39.6680455 C156.3093,40.7423864 155.051789,41.6215227 153.469389,41.6215227 C151.889856,41.6215227 150.633778,40.7423864 150.633778,39.6680455 L151.593156,28.8177273 C151.6997,28.1643409 152.4995,27.6627273 153.468433,27.6627273 Z M159.408167,15.2937273 L168.336878,9.03859091 C169.262811,8.50213636 170.656489,9.14788636 171.450556,10.5162273 C172.237456,11.8831364 172.103678,13.4099318 171.172967,13.9459091 L161.285833,18.5439545 C160.667111,18.774 159.829567,18.3372955 159.343667,17.4963409 C158.857767,16.6558636 158.897422,15.71325 159.408167,15.2937273 Z M145.653422,18.5439545 L135.768678,13.9459091 C134.841789,13.4099318 134.700844,11.8831364 135.493478,10.5162273 C136.283244,9.14788636 137.676444,8.50213636 138.603811,9.03859091 L147.532044,15.2937273 C148.045656,15.71325 148.082922,16.6549091 147.597022,17.4963409 C147.112078,18.3368182 146.272144,18.774 145.653422,18.5439545 Z M151.593156,12.9512727 L150.633778,2.10095455 C150.633778,1.02804545 151.889856,0.147 153.469389,0.147 C155.051789,0.147 156.3093,1.02804545 156.3093,2.10095455 L155.348011,12.9512727 C155.240033,13.6051364 154.440711,14.1096136 153.468433,14.1096136 C152.4995,14.1096136 151.6997,13.6051364 151.593156,12.9512727 L151.593156,12.9512727 Z" id="Fill-2" fill="#F2AF36"></path>
            </g>
        </g>
    </g>
</svg>