<?xml version="1.0" encoding="UTF-8"?>
<svg width="24px" height="24px" viewBox="0 0 24 24" version="1.1" xmlns="http://www.w3.org/2000/svg" xmlns:xlink="http://www.w3.org/1999/xlink">
    <title>content-paste</title>
    <g id="content-paste" stroke="none" stroke-width="1" fill="none" fill-rule="evenodd">
        <path d="M19,21 L5,21 L5,5 L7,5 L7,8 L17,8 L17,5 L19,5 M12,3 C12.5522847,3 13,3.44771525 13,4 C13,4.55228475 12.5522847,5 12,5 C11.4477153,5 11,4.55228475 11,4 C11,3.44771525 11.4477153,3 12,3 M19,3 L14.82,3 C14.4,1.84 13.3,1 12,1 C10.7,1 9.6,1.84 9.18,3 L5,3 C3.8954305,3 3,3.8954305 3,5 L3,21 C3,22.1045695 3.8954305,23 5,23 L19,23 C20.1045695,23 21,22.1045695 21,21 L21,5 C21,3.8954305 20.1045695,3 19,3 Z" fill="#007DC6"></path>
    </g>
</svg>