<svg xmlns="http://www.w3.org/2000/svg" width="109.691" height="110.088" viewBox="0 0 109.691 110.088"><defs><style>.a{fill:#7ac4e3;}.b{fill:#41a5c0;}.c{fill:#4d72b6;}.d{fill:#efc039;}</style></defs><path class="a" d="M349.665,190.6a6.333,6.333,0,0,1-8.889,0l-48.917-48.257a6.916,6.916,0,0,0-1.486,3.776v52.622a4.473,4.473,0,0,0,4.473,4.472H395.591a4.473,4.473,0,0,0,4.473-4.472v-52.9a6.717,6.717,0,0,0-1.445-3.421Z" transform="translate(-290.373 -93.12)"/><path class="b" d="M292.341,143.138a9.1,9.1,0,0,0-.659.812l13.607,13.423V130.3Z" transform="translate(-290.198 -94.733)"/><path class="b" d="M386.743,143.151l-12.95-12.95v27.272l13.648-13.432C387.055,143.5,386.743,143.151,386.743,143.151Z" transform="translate(-279.195 -94.746)"/><g transform="translate(15.091)"><path class="b" d="M348.509,101.835a9.9,9.9,0,0,0-13.965-.031L319.521,116.7h43.852Z" transform="translate(-301.558 -98.936)"/><path class="c" d="M378.42,114.6H308.452a4.771,4.771,0,0,0-4.771,4.771v40.108l35.413,34.934a6.19,6.19,0,0,0,8.688,0l35.407-34.852v-40.2A4.769,4.769,0,0,0,378.42,114.6Z" transform="translate(-303.681 -96.837)"/></g><g transform="translate(34.727 31.48)"><path class="d" d="M339.1,141.9a1.935,1.935,0,0,0,2.047-1.261l1.046-11.816c0-1.168-1.368-2.127-3.089-2.127s-3.085.959-3.085,2.127l1.043,11.816A1.93,1.93,0,0,0,339.1,141.9Z" transform="translate(-318.984 -126.696)"/><path class="d" d="M334.723,144.472a1.928,1.928,0,0,0-.069-2.4l-9.713-6.812c-1.008-.584-2.523.119-3.383,1.609s-.71,3.151.3,3.735l10.753,5.007a1.943,1.943,0,0,0,2.116-1.143Z" transform="translate(-320.996 -125.576)"/><path class="d" d="M344.413,144.466a1.943,1.943,0,0,0,2.115,1.143l10.755-5.007c1.014-.584,1.159-2.246.3-3.735s-2.38-2.193-3.387-1.609l-9.713,6.812a1.936,1.936,0,0,0-.068,2.4Z" transform="translate(-317.908 -125.576)"/><g transform="translate(0 25.067)"><path class="d" d="M339.1,153.119a1.933,1.933,0,0,1,2.047,1.258l1.046,11.816c0,1.169-1.368,2.127-3.089,2.127s-3.085-.958-3.085-2.127l1.043-11.816a1.928,1.928,0,0,1,2.042-1.258Z" transform="translate(-318.984 -148.222)"/><path class="d" d="M344.413,150.008a1.935,1.935,0,0,1,2.115-1.14l10.755,5c1.014.585,1.159,2.25.3,3.739s-2.38,2.192-3.387,1.609l-9.713-6.806a1.943,1.943,0,0,1-.068-2.406Z" transform="translate(-317.908 -148.801)"/><path class="d" d="M334.723,150.005a1.935,1.935,0,0,1-.069,2.406l-9.713,6.806c-1.008.583-2.523-.124-3.383-1.609s-.71-3.154.3-3.739l10.753-5a1.936,1.936,0,0,1,2.117,1.14Z" transform="translate(-320.996 -148.801)"/></g></g></svg>