<svg width="16" height="16" viewBox="0 0 16 16" fill="none" xmlns="http://www.w3.org/2000/svg">
    <path fill-rule="evenodd" clip-rule="evenodd" d="M6.886 1.689a1.246 1.246 0 0 1 2.162-.117l.066.117 5.754 11.508a1.246 1.246 0 0 1-.97 1.795l-.144.008H2.246a1.246 1.246 0 0 1-1.172-1.67l.058-.133L6.886 1.69zm1.161.316a.246.246 0 0 0-.23.076l-.037.055-5.754 11.508a.245.245 0 0 0 .163.35l.057.006h11.508a.246.246 0 0 0 .241-.293l-.021-.063L8.22 2.136a.246.246 0 0 0-.066-.082l-.044-.028-.063-.021zM8 11.5a.5.5 0 1 1 0 1 .5.5 0 0 1 0-1zm0-6a.5.5 0 0 1 .492.41L8.5 6v4.14a.5.5 0 0 1-.992.09l-.008-.09V6a.5.5 0 0 1 .5-.5z" fill="#662B0D"/>
</svg>
