<svg xmlns="http://www.w3.org/2000/svg" width="100" height="100" viewBox="0 0 100 100">
    <defs>
        <style>
            .a {
                fill: #5a8a29;
            }

            .b {
                fill: #ffffff;
            }
        </style>
    </defs>
    <g transform="translate(-641.008 186.367)">
        <circle class="a" cx="50" cy="50" r="50" transform="translate(641.008 -186.367)" />
        <path class="b"
            d="M699.536-178a5.949,5.949,0,0,0-4.292-1.806h0A5.949,5.949,0,0,0,690.952-178l-27.077,28.157-7.923-8.244a5.973,5.973,0,0,0-4.295-1.806h0a5.986,5.986,0,0,0-4.289,1.806,6.394,6.394,0,0,0-1.777,4.464,6.4,6.4,0,0,0,1.777,4.467l12.218,12.711a5.91,5.91,0,0,0,4.292,1.851,5.911,5.911,0,0,0,4.295-1.851l31.366-32.624A6.5,6.5,0,0,0,699.536-178Z"
            transform="translate(17 20)" />
    </g>
</svg>