<svg xmlns="http://www.w3.org/2000/svg" width="35" height="35" viewBox="0 0 35 35">
    <path fill="#5FB446" d="M22.837.842C15.563-1.568 7.539 1.36 3.13 7.488c-4.446 6.181-4.068 14.872.57 20.816 4.65 5.959 12.874 8.262 19.951 5.598 6.786-2.554 11.3-9.163 11.348-16.385C34.948 9.935 30.025 3.224 22.837.842zm-2.773 31.523c-7.103 1.328-14.332-3.012-16.764-9.74-2.494-6.896.503-14.648 6.825-18.257C16.523.714 24.67 2.524 29.278 8.124c2.157 2.62 3.255 6.025 3.278 9.393-.05 7.31-5.323 13.508-12.491 14.849zm6.303-18.992l-1.635 1.634-7.343 7.339-1.808 1.807c-.144.145-.305.246-.474.312-1.09.516-2.078-.83-2.776-1.528l-3.543-3.541c-.459-.458-1.074-1.055-.78-1.78.45-1.104 1.643-1.345 2.483-.505l3.252 3.25.82.821 5.895-5.89 3.28-3.28c.727-.726 1.69-2.002 2.828-1.135.057.044.11.093.158.144.051.049.1.102.144.16.629.823.091 1.6-.501 2.192z"/>
</svg>
