<?xml version="1.0" encoding="UTF-8"?>
<svg width="16px" height="16px" viewBox="0 0 16 16" version="1.1" xmlns="http://www.w3.org/2000/svg" xmlns:xlink="http://www.w3.org/1999/xlink">
    <title>info-sc</title>
    <g id="info-sc" stroke="none" stroke-width="1" fill="none" fill-rule="evenodd">
        <g id="Group-10" transform="translate(3.000000, 3.000000)" fill="#017DC6" fill-rule="nonzero">
            <path d="M5.5,0 C2.46243388,0 0,2.46243388 0,5.5 C0,6.95869069 0.579462622,8.35763722 1.6109127,9.3890873 C2.64236278,10.4205374 4.04130931,11 5.5,11 C6.95869069,11 8.35763722,10.4205374 9.3890873,9.3890873 C10.4205374,8.35763722 11,6.95869069 11,5.5 C11,4.04130931 10.4205374,2.64236278 9.3890873,1.6109127 C8.35763722,0.579462622 6.95869069,0 5.5,0 L5.5,0 Z M1.1,5.5 C1.1,3.0745 3.0745,1.1 5.5,1.1 C7.9255,1.1 9.9,3.0745 9.9,5.5 C9.9,7.9255 7.9255,9.9 5.5,9.9 C3.0745,9.9 1.1,7.9255 1.1,5.5 Z M5.77342857,3.53571429 C5.60371344,3.53571429 5.46857193,3.49328614 5.368,3.40842857 C5.26742807,3.323571 5.21714286,3.20885787 5.21714286,3.06428571 C5.21714286,2.8694276 5.29257067,2.70285783 5.44342857,2.56457143 C5.59428647,2.42628502 5.77342753,2.35714286 5.98085714,2.35714286 C6.16314377,2.35714286 6.29514245,2.41214231 6.37685714,2.52214286 C6.45857184,2.63214341 6.49942857,2.74371372 6.49942857,2.85685714 C6.49942857,3.05800101 6.42871499,3.22142794 6.28728571,3.34714286 C6.14585644,3.47285777 5.97457243,3.53571429 5.77342857,3.53571429 Z M5.54714286,7.62771429 C5.52828562,7.70314323 5.51885714,7.7597141 5.51885714,7.79742857 C5.51885714,7.854 5.54714257,7.88228571 5.60371429,7.88228571 C5.64142876,7.88228571 5.68699973,7.87128582 5.74042857,7.84928571 C5.79385741,7.8272856 5.84571403,7.802143 5.896,7.77385714 C5.94628597,7.74557129 5.99342835,7.72042868 6.03742857,7.69842857 C6.08142879,7.67642846 6.11599987,7.66542857 6.14114286,7.66542857 C6.19142882,7.66542857 6.23071414,7.69214259 6.259,7.74557143 C6.28728586,7.79900027 6.3045714,7.85085689 6.31085714,7.90114286 C6.21028521,7.97028606 6.09242925,8.04571388 5.95728571,8.12742857 C5.82214218,8.20914327 5.68385785,8.28457108 5.54242857,8.35371429 C5.40099929,8.42285749 5.26271496,8.48099976 5.12757143,8.52814286 C4.9924279,8.57528595 4.87457193,8.59885714 4.774,8.59885714 C4.66714232,8.59885714 4.57757179,8.57685736 4.50528571,8.53285714 C4.43299964,8.48885692 4.39685714,8.41342911 4.39685714,8.30657143 C4.39685714,8.26885695 4.39999997,8.23271446 4.40628571,8.19814286 C4.41257146,8.16357126 4.41885711,8.13371441 4.42514286,8.10857143 L5.02857143,5.23285714 C5.04742867,5.13857096 5.03171454,5.09142857 4.98142857,5.09142857 C4.96257133,5.09142857 4.9342859,5.09928564 4.89657143,5.115 C4.85885695,5.13071436 4.81642881,5.14799991 4.76928571,5.16685714 C4.72214262,5.18571438 4.67500024,5.20299992 4.62785714,5.21871429 C4.58071405,5.23442865 4.54142873,5.24228571 4.51,5.24228571 C4.45342829,5.24228571 4.41100014,5.21400028 4.38271429,5.15742857 C4.35442843,5.10085686 4.33400006,5.04742882 4.32142857,4.99714286 C4.44085774,4.9342854 4.58385631,4.86200041 4.75042857,4.78028571 C4.91700083,4.69857102 5.08042777,4.62471462 5.24071429,4.55871429 C5.4010008,4.49271396 5.5471422,4.43614309 5.67914286,4.389 C5.81114352,4.34185691 5.90542829,4.31828571 5.962,4.31828571 C6.01228597,4.31828571 6.05942835,4.33085702 6.10342857,4.356 C6.14742879,4.38114298 6.16942857,4.42514254 6.16942857,4.488 C6.16942857,4.50685724 6.16785716,4.53199984 6.16471429,4.56342857 C6.16157141,4.5948573 6.15685717,4.62628556 6.15057143,4.65771429 L5.54714286,7.62771429 Z" id="Shape-Copy-3"></path>
        </g>
    </g>
</svg>