<svg xmlns="http://www.w3.org/2000/svg" width="163.972" height="212.896" viewBox="0 0 163.972 212.896"><defs><style>.a{fill:#2dbbe0;}.b{fill:#269ebf;}.c{fill:#fff;}.d{fill:#ffaa1a;}</style></defs><path class="a" d="M445.9,196.027H303.223a10.648,10.648,0,0,0-10.649,10.647v191.6a10.648,10.648,0,0,0,10.649,10.648H445.9a10.648,10.648,0,0,0,10.647-10.648v-191.6A10.647,10.647,0,0,0,445.9,196.027Z" transform="translate(-292.574 -196.027)"/><g transform="translate(0 0)"><path class="b" d="M388.57,354.3c0-34.816,25.336-60.148,60.154-60.148a63.561,63.561,0,0,1,7.822.5V277.815c-31.582-21.2-124.586,38.325-163.972,33v77.725a10.648,10.648,0,0,0,10.649,10.648H407.361A62.835,62.835,0,0,1,388.57,354.3Z" transform="translate(-292.574 -186.288)"/><path class="a" d="M456.546,287.554V206.674A10.647,10.647,0,0,0,445.9,196.027H303.223a10.648,10.648,0,0,0-10.649,10.647V320.55C331.96,325.879,424.964,266.359,456.546,287.554Z" transform="translate(-292.574 -196.027)"/><path class="a" d="M445.786,386.194V292.307a63.574,63.574,0,0,0-7.822-.5c-34.819,0-60.154,25.333-60.154,60.148A62.835,62.835,0,0,0,396.6,396.841h38.538A10.648,10.648,0,0,0,445.786,386.194Z" transform="translate(-281.814 -183.945)"/></g><rect class="c" width="136.761" height="183.743" rx="2.764" transform="translate(13.606 14.576)"/><path class="d" d="M382.113,295.116l26.068-26.065a8.607,8.607,0,0,0-12.172-12.172L369.94,282.945l-26.069-26.066A8.608,8.608,0,0,0,331.7,269.052l26.069,26.065L331.7,321.182a8.608,8.608,0,0,0,12.173,12.172l26.069-26.066,26.069,26.066a8.607,8.607,0,1,0,12.172-12.172Z" transform="translate(-287.953 -188.669)"/></svg>