<svg xmlns="http://www.w3.org/2000/svg" width="12" height="12" viewBox="0 0 12 12">
    <g>
        <path fill="#006799" d="M6.563.563a6 6 0 1 0 6 6 6 6 0 0 0-6-6zm0 2.661A1.016 1.016 0 1 1 5.546 4.24a1.016 1.016 0 0 1 1.017-1.016zm1.354 6.145a.29.29 0 0 1-.29.29H5.5a.29.29 0 0 1-.29-.29v-.581A.29.29 0 0 1 5.5 8.5h.29V6.95H5.5a.29.29 0 0 1-.29-.29v-.581a.29.29 0 0 1 .29-.29h1.546a.29.29 0 0 1 .29.29V8.5h.29a.29.29 0 0 1 .29.29z" transform="translate(-84 -8467) translate(83.438 8466.438)"/>
    </g>
</svg>
