<?xml version="1.0" encoding="UTF-8"?>
<svg width="16px" height="16px" viewBox="0 0 16 16" version="1.1" xmlns="http://www.w3.org/2000/svg" xmlns:xlink="http://www.w3.org/1999/xlink">
    <title>question</title>
    <g id="question" stroke="none" stroke-width="1" fill="none" fill-rule="evenodd">
        <path d="M7.3,12.2 L8.7,12.2 L8.7,10.8 L7.3,10.8 L7.3,12.2 L7.3,12.2 Z M8,1 C4.13400675,1 1,4.13400675 1,8 C1,9.85651543 1.73749788,11.6369928 3.05025253,12.9497475 C4.36300718,14.2625021 6.14348457,15 8,15 C9.85651543,15 11.6369928,14.2625021 12.9497475,12.9497475 C14.2625021,11.6369928 15,9.85651543 15,8 C15,6.14348457 14.2625021,4.36300718 12.9497475,3.05025253 C11.6369928,1.73749788 9.85651543,1 8,1 L8,1 Z M8,13.6 C4.913,13.6 2.4,11.087 2.4,8 C2.4,4.913 4.913,2.4 8,2.4 C11.087,2.4 13.6,4.913 13.6,8 C13.6,11.087 11.087,13.6 8,13.6 L8,13.6 Z M8,3.8 C6.4536027,3.8 5.2,5.0536027 5.2,6.6 L6.6,6.6 C6.6,5.82680135 7.22680135,5.2 8,5.2 C8.77319865,5.2 9.4,5.82680135 9.4,6.6 C9.4,8 7.3,7.825 7.3,10.1 L8.7,10.1 C8.7,8.525 10.8,8.35 10.8,6.6 C10.8,5.0536027 9.5463973,3.8 8,3.8 Z" id="Shape-Copy" fill="#007DC6"></path>
    </g>
</svg>