<svg xmlns="http://www.w3.org/2000/svg" width="35" height="35" viewBox="0 0 35 35">
    <g fill="none" fill-rule="evenodd">
        <path fill="#DE1C24" d="M25.573 10.508c.665.666.665 1.745 0 2.41L20.45 18.04l5.123 5.124c.665.665.665 1.745 0 2.41-.666.666-1.745.666-2.411 0l-5.123-5.124-5.122 5.124c-.666.666-1.745.666-2.41 0-.666-.665-.666-1.745 0-2.41l5.122-5.124-5.123-5.121c-.665-.666-.665-1.745 0-2.411.666-.666 1.745-.666 2.41 0l5.123 5.121 5.123-5.121c.666-.666 1.745-.666 2.41 0z"/>
    </g>
</svg>
