<svg xmlns="http://www.w3.org/2000/svg" width="35" height="35" viewBox="0 0 35 35">
    <g fill="none" fill-rule="evenodd">
        <path fill-rule="nonzero" stroke="#DE1C24" stroke-width="3" d="M6.186 6.186C3.062 9.31 1.5 13.405 1.5 17.5s1.562 8.19 4.686 11.314C9.31 31.938 13.406 33.5 17.5 33.5c4.095 0 8.19-1.562 11.313-4.686C31.938 25.69 33.5 21.594 33.5 17.5c0-4.095-1.562-8.19-4.687-11.314C25.69 3.062 21.595 1.5 17.5 1.5c-4.095 0-8.19 1.562-11.314 4.686z"/>
        <path fill="#DE1C24" d="M25.573 10.508c.665.666.665 1.745 0 2.41L20.45 18.04l5.123 5.124c.665.665.665 1.745 0 2.41-.666.666-1.745.666-2.411 0l-5.123-5.124-5.122 5.124c-.666.666-1.745.666-2.41 0-.666-.665-.666-1.745 0-2.41l5.122-5.124-5.123-5.121c-.665-.666-.665-1.745 0-2.411.666-.666 1.745-.666 2.41 0l5.123 5.121 5.123-5.121c.666-.666 1.745-.666 2.41 0z"/>
    </g>
</svg>
