<svg xmlns="http://www.w3.org/2000/svg" width="16" height="16" viewBox="0 0 16 16">
  <g id="Group_1490" data-name="Group 1490" transform="translate(-975 -175)">
    <rect id="Rectangle_507" data-name="Rectangle 507" width="16" height="16" transform="translate(975 175)" fill="none"/>
    <path id="Icon_awesome-search" data-name="Icon awesome-search" d="M13.81,12.1,11.083,9.378a.656.656,0,0,0-.465-.191h-.446a5.686,5.686,0,1,0-.984.984v.446a.656.656,0,0,0,.191.465l2.726,2.726a.654.654,0,0,0,.927,0l.774-.774A.659.659,0,0,0,13.81,12.1ZM5.688,9.187a3.5,3.5,0,1,1,3.5-3.5A3.5,3.5,0,0,1,5.688,9.187Z" transform="translate(976 176)" fill="#235882"/>
  </g>
</svg>
