<?xml version="1.0" encoding="utf-8"?>
<!DOCTYPE svg PUBLIC "-//W3C//DTD SVG 1.1//EN" "http://www.w3.org/Graphics/SVG/1.1/DTD/svg11.dtd">
<svg version="1.1" xmlns="http://www.w3.org/2000/svg" xmlns:xlink="http://www.w3.org/1999/xlink" x="0px" y="0px" viewBox="0 0 1000 1000" enable-background="new 0 0 1000 1000" xml:space="preserve" fill="#017dc6">
<g><path d="M500,386.9c62.5,0,113.1,50.6,113.1,113.1c0,62.5-50.6,113.1-113.1,113.1S386.9,562.5,386.9,500C386.9,437.5,437.6,386.9,500,386.9z M500,198.5c263.8,0,490,188.5,490,301.5c0,113.1-226.2,301.5-490,301.5S10,613.1,10,500C10,386.9,236.2,198.5,500,198.5z M500,292.7c-114.5,0-207.3,92.8-207.3,207.3c0,114.5,92.8,207.3,207.3,207.3S707.3,614.5,707.3,500C707.3,385.5,614.5,292.7,500,292.7z"/></g>
</svg>
