<?xml version="1.0" encoding="UTF-8"?>
<svg width="120px" height="120px" viewBox="0 0 120 120" version="1.1" xmlns="http://www.w3.org/2000/svg" xmlns:xlink="http://www.w3.org/1999/xlink">
    <title>Group 7</title>
    <defs>
        <polygon id="path-1" points="0.06 0.585 105.491706 0.585 105.491706 118.94 0.06 118.94"></polygon>
    </defs>
    <g id="Components" stroke="none" stroke-width="1" fill="none" fill-rule="evenodd">
        <g id="Text-Fields-and-Navigational" transform="translate(-1029.000000, -539.000000)">
            <g id="Group-7" transform="translate(1029.000000, 539.000000)">
                <rect id="Rectangle" fill="none" x="0" y="0" width="120" height="120"></rect>
                <g id="Preloader" transform="translate(7.000000, 0.000000)">
                    <g id="wmt_spark1235-2">
                        <g id="Group-8">
                            <mask id="mask-2" fill="white">
                                <use xlink:href="#path-1"></use>
                            </mask>
                            <g id="Clip-2"></g>
                            <path d="M52.734,40.448 C55.507,40.448 57.792,39.009 58.1,37.143 L60.842,6.163 C60.842,3.101 57.254,0.585 52.742,0.585 C48.237,0.585 44.656,3.101 44.656,6.163 L47.391,37.143 C47.694,39.009 49.98,40.448 52.744,40.448 L52.734,40.448" id="Fill-1" fill="#F3B53D" mask="url(#mask-2)"></path>
                            <path d="M35.808,43.83 L10.344,25.972 C7.7,24.439 3.727,26.283 1.472,30.19 C-0.787,34.092 -0.385,38.452 2.259,39.982 L30.451,53.11 C32.216,53.767 34.616,52.509 35.999,50.111 C35.9956667,50.1163333 35.9923333,50.1216667 35.989,50.127 C37.38,47.728 37.273,45.028 35.808,43.83 Z" id="Fill-3" fill="#F3B53D" opacity="0.100000001" mask="url(#mask-2)"></path>
                            <path d="M75.036,53.11 L103.232,39.982 C105.888,38.452 106.268,34.092 104.024,30.19 C101.761,26.283 97.784,24.439 95.144,25.972 L69.68,43.83 C68.222,45.028 68.115,47.728 69.501,50.127 L69.491,50.111 C70.878,52.509 73.271,53.767 75.036,53.11 Z" id="Fill-4" fill="#F3B53D" opacity="0.800000012" mask="url(#mask-2)"></path>
                            <path d="M58.1,82.445 L60.842,113.423 C60.842,116.49 57.254,119 52.742,119 C48.237,119 44.656,116.49 44.656,113.423 L47.391,82.445 C47.694,80.581 49.98,79.148 52.744,79.148 L52.734,79.148 C55.507,79.148 57.792,80.581 58.1,82.445 Z" id="Fill-5" fill="#F3B53D" opacity="0.400000006" mask="url(#mask-2)"></path>
                            <path d="M69.491,69.472 C70.878,67.066 73.271,65.818 75.036,66.483 L103.232,79.599 C105.888,81.135 106.268,85.497 104.024,89.402 C101.761,93.296 97.784,95.148 95.144,93.619 L69.68,75.775 C68.222,74.564 68.115,71.865 69.501,69.466 L69.491,69.472" id="Fill-6" fill="#F3B53D" opacity="0.600000024" mask="url(#mask-2)"></path>
                            <path d="M35.989,69.466 C37.38,71.865 37.273,74.564 35.808,75.775 L10.344,93.619 C7.7,95.148 3.727,93.296 1.472,89.402 C-0.787,85.497 -0.385,81.135 2.259,79.599 L30.451,66.483 C32.216,65.818 34.616,67.066 36.001,69.472 L35.989,69.466" id="Fill-7" fill="#F3B53D" opacity="0.200000003" mask="url(#mask-2)"></path>
                        </g>
                    </g>
                </g>
            </g>
        </g>
    </g>
</svg>