<svg xmlns="http://www.w3.org/2000/svg" width="20" height="20" viewBox="0 0 20 20">
    <path fill="#ED7D7C" d="M18.64 4.975c-.894-1.53-2.106-2.742-3.636-3.635C13.474.447 11.802 0 9.99 0 8.177 0 6.506.447 4.975 1.34c-1.53.893-2.742 2.105-3.635 3.635C.447 6.505 0 8.177 0 9.99c0 1.813.447 3.484 1.34 5.015.893 1.53 2.105 2.742 3.635 3.635 1.53.893 3.202 1.34 5.014 1.34 1.813 0 3.484-.447 5.015-1.34 1.53-.893 2.742-2.105 3.635-3.635.893-1.531 1.34-3.202 1.34-5.015 0-1.812-.447-3.484-1.34-5.014zm-3.942 7.368c.165.165.247.36.247.586 0 .234-.082.434-.247.598l-1.17 1.171c-.165.165-.365.247-.599.247-.225 0-.42-.082-.585-.247L9.99 12.343l-2.355 2.355c-.165.165-.36.247-.585.247-.234 0-.434-.082-.598-.247l-1.171-1.17c-.165-.165-.247-.365-.247-.599 0-.225.082-.42.247-.586L7.635 9.99 5.281 7.635c-.165-.165-.247-.36-.247-.585 0-.234.082-.434.247-.599l1.17-1.17c.165-.165.365-.247.599-.247.225 0 .42.082.585.247L9.99 7.635l2.354-2.354c.164-.165.36-.247.585-.247.234 0 .434.082.598.247l1.171 1.17c.165.165.247.365.247.599 0 .225-.082.42-.247.585l-2.354 2.354 2.354 2.354z" opacity=".4"/>
</svg>