<svg xmlns="http://www.w3.org/2000/svg" width="87" height="87" viewBox="0 0 87 87">
    <g fill="none">
        <path fill="#64CCF4" d="M87 87H0V73.683c0-4.573 2.86-8.656 7.159-10.22l22.747-8.273v-5.345L21.75 38.97V22.518C21.75 10.944 30.464.822 42.01.05 54.674-.8 65.25 9.264 65.25 21.75v17.218l-8.156 10.875v5.348l22.747 8.273C84.14 65.023 87 69.107 87 73.683V87z"/>
        <path fill="#40A2E7" d="M49 38L38 38 38 22 43.5 22 43.5 32.667 49 32.667z"/>
        <path fill="#43ADE8" d="M57.094 55.15v-5.352L65.25 38.91V38c-14.991 0-27.188 12.212-27.188 27.222 0 6.063 2.034 11.63 5.398 16.15H0V87h87V66.039L57.094 55.15z"/>
        <path fill="#9CC618" d="M87 65c0 12.15-9.85 22-22 22s-22-9.85-22-22 9.85-22 22-22 22 9.85 22 22z"/>
        <g fill="#FFF">
            <path d="M0 .17L5.581.17 5.581 5.639 0 5.639zM13.953 66.935L5.004 58.164 8.95 54.297 13.953 59.201 25.934 47.461 29.88 51.328z" transform="translate(49 7)"/>
        </g>
    </g>
</svg>
