<svg xmlns="http://www.w3.org/2000/svg" width="50" height="50" viewBox="0 0 50 50">
    <g fill="#5FB446">
        <path d="M42.678 7.322C37.956 2.6 31.678 0 25 0 18.322 0 12.044 2.6 7.322 7.322 2.6 12.044 0 18.322 0 25c0 6.678 2.6 12.956 7.322 17.678C12.044 47.4 18.322 50 25 50c6.678 0 12.956-2.6 17.678-7.322C47.4 37.956 50 31.678 50 25c0-6.678-2.6-12.956-7.322-17.678zM25 47.07c-12.17 0-22.07-9.9-22.07-22.07S12.83 2.93 25 2.93 47.07 12.83 47.07 25 37.17 47.07 25 47.07z"/>
        <path d="M36.944 16.978c-.572-.571-1.5-.571-2.072 0L21.937 29.915l-6.81-6.81c-.571-.571-1.499-.571-2.07 0-.573.573-.573 1.5 0 2.072l7.844 7.845c.286.286.661.43 1.036.43s.75-.144 1.036-.43l13.97-13.971c.573-.572.573-1.5 0-2.072z"/>
    </g>
</svg>
