<svg id="Layer_1" data-name="Layer 1" xmlns="http://www.w3.org/2000/svg" viewBox="0 0 1224.48 792.82">
  <defs>
    <style>
      .cls-1 {
        fill: #0071dc;
      }

      .cls-2 {
        fill: #ffc220;
      }

      .cls-3 {
        fill: #fff;
      }
    </style>
  </defs>
  <rect class="cls-1" width="1224.48" height="792.82"/>
  <g>
    <g>
      <path class="cls-2" d="M676.48,370.76l-.94-10.68c0-1.05,1.23-1.92,2.78-1.92s2.8.87,2.8,1.92l-1,10.68a2.06,2.06,0,0,1-3.69,0Z" transform="translate(0.24 0.41)"/>
      <path class="cls-2" d="M672.55,375.23a1.73,1.73,0,0,0-.06-2.16l-8.78-6.16c-.91-.53-2.28.11-3.06,1.45s-.64,2.85.27,3.38l9.72,4.52A1.74,1.74,0,0,0,672.55,375.23Z" transform="translate(0.24 0.41)"/>
      <path class="cls-2" d="M684.1,375.23a1.74,1.74,0,0,0,1.91,1l9.72-4.52c.91-.53,1-2,.27-3.38s-2.15-2-3.06-1.45l-8.78,6.16A1.73,1.73,0,0,0,684.1,375.23Z" transform="translate(0.24 0.41)"/>
      <path class="cls-2" d="M676.48,386.37l-.94,10.68c0,1.06,1.23,1.92,2.78,1.92s2.8-.86,2.8-1.92l-1-10.68a2.07,2.07,0,0,0-3.69,0Z" transform="translate(0.24 0.41)"/>
      <path class="cls-2" d="M684.16,384.07l8.78,6.16c.91.52,2.28-.12,3.06-1.46s.64-2.85-.27-3.38L686,380.87a2.07,2.07,0,0,0-1.85,3.2Z" transform="translate(0.24 0.41)"/>
      <path class="cls-2" d="M670.64,380.87l-9.72,4.52c-.91.53-1,2-.27,3.38s2.15,2,3.06,1.46l8.78-6.16a2.07,2.07,0,0,0-1.85-3.2Z" transform="translate(0.24 0.41)"/>
    </g>
    <g>
      <path class="cls-3" d="M627.77,379.8c0-4-1.73-7.58-7.55-7.58a13.87,13.87,0,0,0-6.65,1.58l.95,3.24a9.77,9.77,0,0,1,4.85-1.36c3,0,3.44,1.67,3.44,2.75v.25c-6.44,0-10.51,2.22-10.51,6.76a5.36,5.36,0,0,0,5.67,5.37,6.43,6.43,0,0,0,5.18-2.3h.11s.74,3.08,4.79,1.9a25.24,25.24,0,0,1-.28-4.29ZM623,384.05a3.44,3.44,0,0,1-.12,1,3.37,3.37,0,0,1-3.24,2.27,2.19,2.19,0,0,1-2.39-2.35c0-2.45,2.69-3.12,5.75-3.11Z" transform="translate(0.24 0.41)"/>
      <path class="cls-3" d="M532.81,366.73c.5,2.5,1.91,9.78,1.91,9.78.6,3,1.14,6.13,1.55,8.61h.08c.4-2.63,1-5.13,1.7-8.22l2.38-10.17h5.26l2.23,10.43c.58,2.91,1.05,5.14,1.41,7.84h.07c.4-2.73.92-5.05,1.5-8L553,366.73h5.05l-6.26,23.68c-4,.87-5.51-.73-6.06-3.28s-1.62-7.39-1.62-7.39a70.14,70.14,0,0,1-1.27-7.26h-.08c-.43,2.7-.87,4.59-1.54,7.25l-2.63,10.68c-4.06.81-5.48-.39-6.26-3.66-.67-2.79-4.88-20-4.88-20Z" transform="translate(0.24 0.41)"/>
      <path class="cls-3" d="M572.44,379.8c0-4-1.72-7.58-7.54-7.58a13.84,13.84,0,0,0-6.65,1.58l.94,3.24a9.84,9.84,0,0,1,4.86-1.36c3,0,3.43,1.67,3.43,2.75v.25c-6.43,0-10.5,2.22-10.5,6.76a5.36,5.36,0,0,0,5.67,5.37,6.43,6.43,0,0,0,5.18-2.3h.11s.73,3.08,4.79,1.9a25.16,25.16,0,0,1-.29-4.29Zm-4.8,4.25a3.44,3.44,0,0,1-.12,1,3.37,3.37,0,0,1-3.25,2.27,2.19,2.19,0,0,1-2.38-2.35c0-2.45,2.69-3.12,5.75-3.11Z" transform="translate(0.24 0.41)"/>
      <rect class="cls-3" x="575.89" y="367.14" width="4.81" height="23.69"/>
      <path class="cls-3" d="M648.13,366.73v5.6h4.19v4.53h-4.19v6.68c0,2.17.55,3.21,2.19,3.21a7.43,7.43,0,0,0,1.83-.21l.06,3.76a11.65,11.65,0,0,1-3.48.51,5.35,5.35,0,0,1-3.92-1.48c-1-1-1.42-2.72-1.42-5.13V366.73Z" transform="translate(0.24 0.41)"/>
      <path class="cls-3" d="M635.33,372.62V376h.13a5.23,5.23,0,0,1,4.84-3.75,4.6,4.6,0,0,1,1.1.11V377a9.83,9.83,0,0,0-1.44-.12A3.75,3.75,0,0,0,636,380a6.54,6.54,0,0,0-.11,1.31v9.11h-5V372.62Z" transform="translate(0.24 0.41)"/>
      <path class="cls-3" d="M588.42,372.62V375h.07a5.58,5.58,0,0,1,5.18-2.82,5.09,5.09,0,0,1,4.91,3.18h.07a7.52,7.52,0,0,1,2.25-2.22,6.48,6.48,0,0,1,3.51-1c3.17,0,6,2.18,6,7.71v10.48h-4.84v-9.75c0-2.8-.95-4.42-2.92-4.42a3,3,0,0,0-2.9,2.17,4.82,4.82,0,0,0-.21,1.44v10.56h-4.83V380.27c0-2.38-.91-4-2.86-4a3.28,3.28,0,0,0-2.94,2.28,4.21,4.21,0,0,0-.23,1.46v10.43h-4.83V372.62Z" transform="translate(0.24 0.41)"/>
    </g>
  </g>
  <g>
    <path class="cls-3" d="M500,426.9c3.27,1.26,6.44,4,6.44,8.85,0,6.13-5,10.55-11.91,10.55H481.71a1,1,0,0,1-1-1V409.09a1,1,0,0,1,1-1H494c6.61,0,11.37,4.37,11.37,10.11a9.41,9.41,0,0,1-5.3,8.63Zm-5.31,14.37c3.72,0,5.69-2.56,5.69-5.95a5.59,5.59,0,0,0-5.69-5.74h-8.52v11.69Zm-1.31-16.61a5.56,5.56,0,0,0,5.85-5.84c0-3.61-2.35-5.63-5.85-5.63h-7.15v11.47Z" transform="translate(0.24 0.41)"/>
    <path class="cls-3" d="M511.42,421.93a1.08,1.08,0,0,1,1.15-1.09c2,0,3.06,1.36,3.33,3.17a9.6,9.6,0,0,1,7.49-3.5c2.4,0,5.41.66,4.59,2.35l-1.31,2.73a1.09,1.09,0,0,1-1.53.6,6.25,6.25,0,0,0-2.3-.49,7.16,7.16,0,0,0-6,3.39v16c0,1.09-.72,1.2-1.75,1.2h-2.52a1.22,1.22,0,0,1-1.2-1.2Z" transform="translate(0.24 0.41)"/>
    <path class="cls-3" d="M538.55,430.35a19.54,19.54,0,0,1,5.08.76c.11-4-1.92-5.79-5.08-5.79a17.84,17.84,0,0,0-6,1.2,1.18,1.18,0,0,1-1.43-1l-.49-2.07a1.15,1.15,0,0,1,.82-1.48,15.6,15.6,0,0,1,7.21-1.42c8.09,0,10.33,4.86,10.33,11.15v13.77a1.08,1.08,0,0,1-1.15,1.09,3.21,3.21,0,0,1-3.33-2.95,10.86,10.86,0,0,1-7.92,3.33c-4.76,0-8.14-3.17-8.14-8.41C528.44,433.84,532,430.35,538.55,430.35Zm-.82,12.07a7.79,7.79,0,0,0,5.84-3.06v-4.21a11.64,11.64,0,0,0-4.59-.87c-3,0-5.19,1.53-5.19,4.15A3.69,3.69,0,0,0,537.73,442.42Z" transform="translate(0.24 0.41)"/>
    <path class="cls-3" d="M554.21,421.93a1.07,1.07,0,0,1,1.14-1.09,3.21,3.21,0,0,1,3.28,3.06,11.64,11.64,0,0,1,8.36-3.39c7.71,0,9.78,5.36,9.78,11.91V445.1a1.25,1.25,0,0,1-1.2,1.2h-3.06a1.22,1.22,0,0,1-1.2-1.2V432.2c0-4.09-1.69-6.5-5-6.5a7.69,7.69,0,0,0-6.67,3.66V445.1c0,.82-.44,1.2-1.47,1.2h-2.79a1.21,1.21,0,0,1-1.2-1.2Z" transform="translate(0.24 0.41)"/>
    <path class="cls-3" d="M592.7,420.51a18.34,18.34,0,0,1,6.34,1.31V409.25a1.29,1.29,0,0,1,1.2-1.2h3.12a1.25,1.25,0,0,1,1.2,1.2v36.18a1.08,1.08,0,0,1-1.15,1.09,3.2,3.2,0,0,1-3.33-2.9,12.11,12.11,0,0,1-8,3.28c-6.67,0-11.53-6-11.53-13.22C580.52,426.3,585.71,420.51,592.7,420.51Zm.11,21.2A7.22,7.22,0,0,0,599.1,438V427.18a12.6,12.6,0,0,0-5.8-1.48c-4.15,0-7.32,3.66-7.32,8S588.77,441.71,592.81,441.71Z" transform="translate(0.24 0.41)"/>
    <path class="cls-3" d="M623.74,409.09a1,1,0,0,1,1-1h12.46a12.19,12.19,0,1,1,0,24.37h-7.92v12.84a1.07,1.07,0,0,1-1,1h-3.55a1,1,0,0,1-1-1Zm13.39,18a6.78,6.78,0,0,0,6.72-7,6.54,6.54,0,0,0-6.72-6.55h-7.76v13.55Z" transform="translate(0.24 0.41)"/>
    <path class="cls-3" d="M662.9,420.51a13.09,13.09,0,0,1,12.84,13.11c0,7.22-5.79,13.28-12.84,13.28a13.2,13.2,0,0,1,0-26.39Zm0,21.2c4.21,0,7.48-3.44,7.48-8.09s-3.27-7.92-7.48-7.92a7.58,7.58,0,0,0-7.54,7.92C655.36,438.27,658.64,441.71,662.9,441.71Z" transform="translate(0.24 0.41)"/>
    <path class="cls-3" d="M679.68,421.93a1.08,1.08,0,0,1,1.15-1.09c2,0,3.06,1.36,3.33,3.17a9.6,9.6,0,0,1,7.49-3.5c2.4,0,5.41.66,4.59,2.35l-1.31,2.73a1.09,1.09,0,0,1-1.53.6,6.25,6.25,0,0,0-2.3-.49,7.16,7.16,0,0,0-6,3.39v16c0,1.09-.71,1.2-1.75,1.2h-2.52a1.22,1.22,0,0,1-1.2-1.2Z" transform="translate(0.24 0.41)"/>
    <path class="cls-3" d="M699,414a1.21,1.21,0,0,1,1.2-1.21h3.12a1.17,1.17,0,0,1,1.14,1.21v7.05h6.67a1.17,1.17,0,0,1,1.2,1.2v2.24a1.24,1.24,0,0,1-1.2,1.2h-6.67v13.44c0,2.13,1.37,2.57,3,2.57a7,7,0,0,0,3.06-.93.94.94,0,0,1,1.47.55l1,2.57c.27.65,0,1.09-.6,1.47a12,12,0,0,1-5.47,1.53c-5.46,0-7.92-3.06-7.92-7.54Z" transform="translate(0.24 0.41)"/>
    <path class="cls-3" d="M724.48,430.35a19.54,19.54,0,0,1,5.08.76c.11-4-1.91-5.79-5.08-5.79a17.84,17.84,0,0,0-6,1.2,1.18,1.18,0,0,1-1.43-1l-.49-2.07a1.15,1.15,0,0,1,.82-1.48,15.62,15.62,0,0,1,7.22-1.42c8.08,0,10.32,4.86,10.32,11.15v13.77a1.07,1.07,0,0,1-1.14,1.09,3.21,3.21,0,0,1-3.34-2.95,10.86,10.86,0,0,1-7.92,3.33c-4.76,0-8.14-3.17-8.14-8.41C714.37,433.84,718,430.35,724.48,430.35Zm-.82,12.07a7.79,7.79,0,0,0,5.84-3.06v-4.21a11.6,11.6,0,0,0-4.59-.87c-2.95,0-5.19,1.53-5.19,4.15A3.69,3.69,0,0,0,723.66,442.42Z" transform="translate(0.24 0.41)"/>
    <path class="cls-3" d="M740.21,409.25a1.25,1.25,0,0,1,1.21-1.2h3.06a1.29,1.29,0,0,1,1.2,1.2V445.1a1.25,1.25,0,0,1-1.2,1.2h-3.06a1.22,1.22,0,0,1-1.21-1.2Z" transform="translate(0.24 0.41)"/>
  </g>
</svg>
