<svg id="Layer_1" data-name="Layer 1" xmlns="http://www.w3.org/2000/svg" viewBox="0 0 230.56 77.2">
  <defs>
    <style>
      .cls-1 {
        fill: #ffc220;
      }

      .cls-2 {
        fill: #fff;
      }
    </style>
  </defs>
  <g>
    <g>
      <g>
        <path class="cls-1" d="M173.08,12.36l-.83-9.29c0-.92,1.08-1.67,2.43-1.67s2.43.75,2.43,1.67l-.82,9.29a1.53,1.53,0,0,1-1.61,1A1.51,1.51,0,0,1,173.08,12.36Z" transform="translate(-2.72 -1.4)"/>
        <path class="cls-1" d="M169.66,16.25a1.51,1.51,0,0,0-.06-1.88L162,9c-.8-.46-2,.09-2.66,1.27s-.56,2.47.23,2.93L168,17.15A1.53,1.53,0,0,0,169.66,16.25Z" transform="translate(-2.72 -1.4)"/>
        <path class="cls-1" d="M179.7,16.25a1.53,1.53,0,0,0,1.66.9l8.46-3.94c.8-.46.91-1.76.24-2.93S188.19,8.55,187.39,9l-7.63,5.36A1.51,1.51,0,0,0,179.7,16.25Z" transform="translate(-2.72 -1.4)"/>
        <path class="cls-1" d="M173.08,25.94l-.83,9.29c0,.92,1.08,1.68,2.43,1.68s2.43-.76,2.43-1.68l-.82-9.29a1.53,1.53,0,0,0-1.61-1A1.51,1.51,0,0,0,173.08,25.94Z" transform="translate(-2.72 -1.4)"/>
        <path class="cls-1" d="M179.76,23.94l7.63,5.35c.8.46,2-.09,2.67-1.26s.56-2.48-.24-2.94l-8.46-3.93a1.52,1.52,0,0,0-1.66.89A1.53,1.53,0,0,0,179.76,23.94Z" transform="translate(-2.72 -1.4)"/>
        <path class="cls-1" d="M168,21.16l-8.46,3.93c-.79.46-.91,1.77-.23,2.94s1.86,1.72,2.66,1.26l7.63-5.35a1.53,1.53,0,0,0,.06-1.89A1.52,1.52,0,0,0,168,21.16Z" transform="translate(-2.72 -1.4)"/>
      </g>
      <g>
        <path class="cls-2" d="M130.69,20.22c0-3.51-1.49-6.59-6.56-6.59A12,12,0,0,0,118.34,15l.83,2.82a8.48,8.48,0,0,1,4.22-1.19c2.57,0,3,1.45,3,2.39v.22c-5.6,0-9.14,1.93-9.14,5.88a4.66,4.66,0,0,0,4.93,4.67,5.6,5.6,0,0,0,4.51-2h.09s.64,2.68,4.17,1.66a22.19,22.19,0,0,1-.25-3.73Zm-4.18,3.71a2.82,2.82,0,0,1-.1.83,2.92,2.92,0,0,1-2.82,2,1.91,1.91,0,0,1-2.08-2c0-2.12,2.34-2.71,5-2.7Z" transform="translate(-2.72 -1.4)"/>
        <path class="cls-2" d="M48.09,8.85c.43,2.18,1.66,8.51,1.66,8.51.51,2.61,1,5.33,1.35,7.49h.06c.35-2.29.9-4.46,1.48-7.15l2.07-8.85h4.58l1.94,9.08c.5,2.53.91,4.47,1.23,6.82h.06c.35-2.37.8-4.4,1.3-7l1.86-8.91h4.39L64.63,29.46c-3.47.76-4.8-.64-5.27-2.86S58,20.17,58,20.17a60.3,60.3,0,0,1-1.11-6.31h-.07c-.37,2.35-.76,4-1.34,6.3l-2.28,9.3c-3.54.7-4.77-.34-5.45-3.19-.58-2.43-4.24-17.42-4.24-17.42Z" transform="translate(-2.72 -1.4)"/>
        <path class="cls-2" d="M82.56,20.22c0-3.51-1.5-6.59-6.56-6.59A12,12,0,0,0,70.21,15L71,17.83a8.48,8.48,0,0,1,4.22-1.19c2.57,0,3,1.45,3,2.39v.22c-5.6,0-9.14,1.93-9.14,5.88A4.66,4.66,0,0,0,74,29.8a5.6,5.6,0,0,0,4.51-2h.09s.64,2.68,4.17,1.66a22.19,22.19,0,0,1-.25-3.73Zm-4.18,3.71a2.82,2.82,0,0,1-.1.83,2.92,2.92,0,0,1-2.82,2,1.91,1.91,0,0,1-2.08-2c0-2.12,2.34-2.71,5-2.7Z" transform="translate(-2.72 -1.4)"/>
        <rect class="cls-2" x="82.63" y="7.45" width="4.18" height="20.61"/>
        <path class="cls-2" d="M148.41,8.85v4.87h3.65v3.94h-3.65v5.82c0,1.88.48,2.79,1.91,2.79a6.55,6.55,0,0,0,1.58-.18l.06,3.27a10.09,10.09,0,0,1-3,.44,4.63,4.63,0,0,1-3.41-1.29c-.84-.9-1.23-2.36-1.23-4.46V8.85Z" transform="translate(-2.72 -1.4)"/>
        <path class="cls-2" d="M137.27,14V16.9h.12a4.55,4.55,0,0,1,4.21-3.27,4.44,4.44,0,0,1,1,.09v4.06a7.34,7.34,0,0,0-1.24-.12,3.27,3.27,0,0,0-3.42,2.73,6.51,6.51,0,0,0-.09,1.14v7.93h-4.32V14Z" transform="translate(-2.72 -1.4)"/>
        <path class="cls-2" d="M96.46,14v2.1h.06A4.87,4.87,0,0,1,101,13.63a4.42,4.42,0,0,1,4.27,2.77h.06a6.41,6.41,0,0,1,2-1.93,5.58,5.58,0,0,1,3.06-.84c2.75,0,5.19,1.9,5.19,6.71v9.12h-4.2V21c0-2.43-.83-3.84-2.55-3.84A2.64,2.64,0,0,0,106.3,19a4.31,4.31,0,0,0-.18,1.26v9.19h-4.2V20.63c0-2.07-.79-3.5-2.49-3.5a2.85,2.85,0,0,0-2.56,2,3.59,3.59,0,0,0-.19,1.27v9.08H92.47V14Z" transform="translate(-2.72 -1.4)"/>
      </g>
    </g>
    <g>
      <path class="cls-2" d="M19.55,61.2c2.85,1.1,5.61,3.47,5.61,7.7,0,5.33-4.37,9.18-10.36,9.18H3.63a.9.9,0,0,1-.91-.9V45.71a.91.91,0,0,1,.91-.91H14.27c5.76,0,9.89,3.81,9.89,8.8a8.19,8.19,0,0,1-4.61,7.51ZM14.94,73.71c3.23,0,4.94-2.24,4.94-5.19a4.86,4.86,0,0,0-4.94-5H7.52V73.71ZM13.8,59.25a4.84,4.84,0,0,0,5.09-5.08c0-3.14-2.05-4.9-5.09-4.9H7.57v10Z" transform="translate(-2.72 -1.4)"/>
      <path class="cls-2" d="M29.47,56.88a.93.93,0,0,1,1-1,2.89,2.89,0,0,1,2.9,2.75,8.37,8.37,0,0,1,6.51-3c2.1,0,4.71.57,4,2l-1.14,2.37a1,1,0,0,1-1.33.53,5.26,5.26,0,0,0-2-.43,6.23,6.23,0,0,0-5.18,3V77c0,1-.62,1-1.52,1H30.52a1.06,1.06,0,0,1-1.05-1Z" transform="translate(-2.72 -1.4)"/>
      <path class="cls-2" d="M53.07,64.2a17,17,0,0,1,4.42.66c.1-3.47-1.66-5-4.42-5a15.53,15.53,0,0,0-5.23,1,1,1,0,0,1-1.23-.9l-.43-1.81a1,1,0,0,1,.71-1.28,13.4,13.4,0,0,1,6.28-1.24c7,0,9,4.23,9,9.7v12a.94.94,0,0,1-1,1,2.8,2.8,0,0,1-2.9-2.57,9.44,9.44,0,0,1-6.89,2.9c-4.14,0-7.08-2.75-7.08-7.32C44.28,67.24,47.42,64.2,53.07,64.2Zm-.71,10.5A6.79,6.79,0,0,0,57.45,72V68.38a10,10,0,0,0-4-.76c-2.56,0-4.51,1.33-4.51,3.61A3.2,3.2,0,0,0,52.36,74.7Z" transform="translate(-2.72 -1.4)"/>
      <path class="cls-2" d="M66.7,56.88a.93.93,0,0,1,1-1,2.79,2.79,0,0,1,2.85,2.66,10.11,10.11,0,0,1,7.27-3c6.7,0,8.51,4.66,8.51,10.36V77a1.09,1.09,0,0,1-1,1H82.62a1.05,1.05,0,0,1-1-1V65.81c0-3.56-1.48-5.65-4.33-5.65a6.68,6.68,0,0,0-5.8,3.18V77c0,.72-.38,1-1.28,1H67.74a1.05,1.05,0,0,1-1-1Z" transform="translate(-2.72 -1.4)"/>
      <path class="cls-2" d="M100.19,55.64a15.9,15.9,0,0,1,5.51,1.14V45.85a1.14,1.14,0,0,1,1-1.05h2.71a1.09,1.09,0,0,1,1,1.05V77.32a.94.94,0,0,1-1,1,2.78,2.78,0,0,1-2.9-2.52,10.54,10.54,0,0,1-7,2.85c-5.8,0-10-5.23-10-11.5S94.1,55.64,100.19,55.64Zm.09,18.45a6.28,6.28,0,0,0,5.47-3.24V61.44a11,11,0,0,0-5-1.28c-3.61,0-6.37,3.18-6.37,6.94S96.77,74.09,100.28,74.09Z" transform="translate(-2.72 -1.4)"/>
      <path class="cls-2" d="M127.19,45.71a.91.91,0,0,1,.91-.91h10.83A10.6,10.6,0,1,1,139,66h-6.89V77.18a.94.94,0,0,1-.9.9H128.1a.9.9,0,0,1-.91-.9Zm11.65,15.64a5.91,5.91,0,0,0,5.85-6.09,5.69,5.69,0,0,0-5.85-5.7h-6.75V61.35Z" transform="translate(-2.72 -1.4)"/>
      <path class="cls-2" d="M161.26,55.64A11.48,11.48,0,1,1,150,67.05,11.4,11.4,0,0,1,161.26,55.64Zm0,18.45c3.66,0,6.51-3,6.51-7a6.54,6.54,0,1,0-13.07,0C154.7,71.09,157.55,74.09,161.26,74.09Z" transform="translate(-2.72 -1.4)"/>
      <path class="cls-2" d="M175.86,56.88a.93.93,0,0,1,1-1,2.89,2.89,0,0,1,2.9,2.75,8.35,8.35,0,0,1,6.51-3c2.09,0,4.71.57,4,2l-1.14,2.37a1,1,0,0,1-1.33.53,5.21,5.21,0,0,0-2-.43,6.24,6.24,0,0,0-5.19,3V77c0,1-.61,1-1.52,1h-2.18a1.06,1.06,0,0,1-1-1Z" transform="translate(-2.72 -1.4)"/>
      <path class="cls-2" d="M192.63,50a1.05,1.05,0,0,1,1.05-1h2.71a1,1,0,0,1,1,1v6.14h5.79a1,1,0,0,1,1,1v2a1.09,1.09,0,0,1-1,1h-5.79V71.85c0,1.86,1.18,2.24,2.61,2.24a6.18,6.18,0,0,0,2.66-.81.83.83,0,0,1,1.29.47L204.8,76c.24.57,0,1-.52,1.28a10.47,10.47,0,0,1-4.76,1.33c-4.75,0-6.89-2.66-6.89-6.56Z" transform="translate(-2.72 -1.4)"/>
      <path class="cls-2" d="M214.83,64.2a17,17,0,0,1,4.42.66c.1-3.47-1.66-5-4.42-5a15.53,15.53,0,0,0-5.23,1,1,1,0,0,1-1.23-.9l-.43-1.81a1,1,0,0,1,.71-1.28,13.4,13.4,0,0,1,6.28-1.24c7,0,9,4.23,9,9.7v12a.94.94,0,0,1-1,1A2.8,2.8,0,0,1,220,75.7a9.44,9.44,0,0,1-6.89,2.9c-4.14,0-7.08-2.75-7.08-7.32C206,67.24,209.17,64.2,214.83,64.2Zm-.71,10.5A6.79,6.79,0,0,0,219.21,72V68.38a10,10,0,0,0-4-.76c-2.56,0-4.51,1.33-4.51,3.61A3.2,3.2,0,0,0,214.12,74.7Z" transform="translate(-2.72 -1.4)"/>
      <path class="cls-2" d="M228.52,45.85a1.1,1.1,0,0,1,1-1.05h2.66a1.14,1.14,0,0,1,1.05,1.05V77a1.1,1.1,0,0,1-1.05,1h-2.66a1.06,1.06,0,0,1-1-1Z" transform="translate(-2.72 -1.4)"/>
    </g>
  </g>
</svg>
